<svg width="20" height="20" viewBox="0 0 20 20" fill="none" xmlns="http://www.w3.org/2000/svg">
<mask id="mask0_24_26387" style="mask-type:luminance" maskUnits="userSpaceOnUse" x="0" y="0" width="20" height="20">
<path d="M20 0H0V20H20V0Z" fill="white"/>
</mask>
<g mask="url(#mask0_24_26387)">
<path d="M18.0008 3.40039H17.0008V1.40039C17.0008 1.13517 16.8954 0.88082 16.7079 0.693284C16.5203 0.505747 16.266 0.400391 16.0008 0.400391H15.0008C14.7355 0.400391 14.4812 0.505747 14.2937 0.693284C14.1061 0.88082 14.0008 1.13517 14.0008 1.40039V3.40039H6.00077V1.40039C6.00077 1.13517 5.89541 0.88082 5.70787 0.693284C5.52034 0.505747 5.26598 0.400391 5.00077 0.400391H4.00077C3.73555 0.400391 3.48119 0.505747 3.29366 0.693284C3.10612 0.88082 3.00077 1.13517 3.00077 1.40039V3.40039H2.00077C1.4539 3.41997 0.936898 3.65478 0.56232 4.0537C0.187741 4.45263 -0.0140894 4.98337 0.000765569 5.53039V17.2704C-0.0140894 17.8174 0.187741 18.3482 0.56232 18.7471C0.936898 19.146 1.4539 19.3808 2.00077 19.4004H18.0008C18.5476 19.3808 19.0646 19.146 19.4392 18.7471C19.8138 18.3482 20.0156 17.8174 20.0008 17.2704V5.53039C20.0156 4.98337 19.8138 4.45263 19.4392 4.0537C19.0646 3.65478 18.5476 3.41997 18.0008 3.40039ZM18.0008 17.2704H2.00077V7.67039H18.0008V17.2704Z" fill="#28A745"/>
<path d="M6.5 9.40039H3.5V11.4004H6.5V9.40039Z" fill="#28A745"/>
<path d="M11.5 9.40039H8.5V11.4004H11.5V9.40039Z" fill="#28A745"/>
<path d="M16.5 9.40039H13.5V11.4004H16.5V9.40039Z" fill="#28A745"/>
<path d="M6.5 13.4004H3.5V15.4004H6.5V13.4004Z" fill="#28A745"/>
<path d="M11.5 13.4004H8.5V15.4004H11.5V13.4004Z" fill="#28A745"/>
<path d="M16.5 13.4004H13.5V15.4004H16.5V13.4004Z" fill="#28A745"/>
</g>
</svg>
