<svg id="calendar" xmlns="http://www.w3.org/2000/svg" width="15.601" height="15.955" viewBox="0 0 15.601 15.955">
  <g id="Group_38878" data-name="Group 38878">
    <path id="Path_22094" data-name="Path 22094" d="M119.023,258.6a.362.362,0,0,0-.362-.362H117.4a.362.362,0,0,0-.362.362v1.264a.362.362,0,0,0,.362.362h1.264a.362.362,0,0,0,.362-.362V258.6Z" transform="translate(-113.387 -249.802)" fill="#28A745"/>
    <path id="Path_22095" data-name="Path 22095" d="M215.658,258.6a.362.362,0,0,0-.362-.362h-1.264a.362.362,0,0,0-.362.362v1.264a.362.362,0,0,0,.362.362H215.3a.362.362,0,0,0,.362-.362Z" transform="translate(-206.863 -249.802)" fill="#28A745"/>
    <path id="Path_22096" data-name="Path 22096" d="M312.286,258.6a.362.362,0,0,0-.362-.362H310.66a.362.362,0,0,0-.362.362v1.264a.362.362,0,0,0,.362.362h1.264a.362.362,0,0,0,.362-.362Z" transform="translate(-300.333 -249.802)" fill="#28A745"/>
    <path id="Path_22097" data-name="Path 22097" d="M119.023,355.237a.362.362,0,0,0-.362-.362H117.4a.362.362,0,0,0-.362.362V356.5a.362.362,0,0,0,.362.362h1.264a.362.362,0,0,0,.362-.362v-1.263Z" transform="translate(-113.387 -343.276)" fill="#28A745"/>
    <path id="Path_22098" data-name="Path 22098" d="M215.658,355.237a.362.362,0,0,0-.362-.362h-1.264a.362.362,0,0,0-.362.362V356.5a.362.362,0,0,0,.362.362H215.3a.362.362,0,0,0,.362-.362Z" transform="translate(-206.863 -343.276)" fill="#28A745"/>
    <path id="Path_22099" data-name="Path 22099" d="M312.286,355.237a.362.362,0,0,0-.362-.362H310.66a.362.362,0,0,0-.362.362V356.5a.362.362,0,0,0,.362.362h1.264a.362.362,0,0,0,.362-.362v-1.263Z" transform="translate(-300.333 -343.276)" fill="#28A745"/>
    <path id="Path_22100" data-name="Path 22100" d="M19.623,54.149v1.93a1.576,1.576,0,0,1-1.58,1.575h-1a1.584,1.584,0,0,1-1.589-1.575V54.142H10.965v1.937a1.584,1.584,0,0,1-1.589,1.575h-1A1.576,1.576,0,0,1,6.8,56.079v-1.93a1.437,1.437,0,0,0-1.389,1.429V66.889a1.437,1.437,0,0,0,1.43,1.439H19.582a1.439,1.439,0,0,0,1.43-1.439V55.578A1.437,1.437,0,0,0,19.623,54.149ZM19.16,66.184a.618.618,0,0,1-.618.618H7.854a.618.618,0,0,1-.618-.618V60.342a.618.618,0,0,1,.618-.618H18.542a.618.618,0,0,1,.618.618v5.842Z" transform="translate(-5.411 -52.372)" fill="#28A745"/>
    <path id="Path_22101" data-name="Path 22101" d="M80.092,4.247h.986a.542.542,0,0,0,.542-.541V.542A.542.542,0,0,0,81.078,0h-.986a.542.542,0,0,0-.542.542V3.706A.542.542,0,0,0,80.092,4.247Z" transform="translate(-77.127)" fill="#28A745"/>
    <path id="Path_22102" data-name="Path 22102" d="M345,4.247h.986a.541.541,0,0,0,.542-.541V.542A.542.542,0,0,0,345.986,0H345a.542.542,0,0,0-.542.542V3.706A.542.542,0,0,0,345,4.247Z" transform="translate(-333.377)" fill="#28A745"/>
  </g>
</svg>
