<svg width="11" height="9" viewBox="0 0 11 9" fill="none" xmlns="http://www.w3.org/2000/svg">
<path d="M4.33473 9C4.13643 8.99084 3.9441 8.94466 3.77455 8.86552C3.60499 8.78637 3.46339 8.67666 3.36212 8.54599L0.408471 5.23581C0.141588 4.91119 0 4.53556 0 4.15214C0 3.76872 0.141588 3.39309 0.408471 3.06848C0.500941 2.9336 0.639913 2.82064 0.810337 2.74182C0.980762 2.663 1.17614 2.62134 1.37532 2.62134C1.57449 2.62134 1.76987 2.663 1.9403 2.74182C2.11072 2.82064 2.2497 2.9336 2.34216 3.06848L4.33473 5.30038L8.66667 0.447147C8.75913 0.312267 8.89811 0.199301 9.06853 0.120483C9.23896 0.0416654 9.43434 0 9.63351 0C9.83269 0 10.0281 0.0416654 10.1985 0.120483C10.3689 0.199301 10.5079 0.312267 10.6004 0.447147C10.8617 0.773289 11 1.14833 11 1.53081C11 1.91329 10.8617 2.28833 10.6004 2.61447L5.29582 8.56262C5.1957 8.6908 5.05541 8.79789 4.88763 8.87425C4.71984 8.95061 4.52982 8.99383 4.33473 9Z" fill="white"/>
</svg>
