<svg width="92" height="92" viewBox="0 0 92 92" fill="none" xmlns="http://www.w3.org/2000/svg">
<circle cx="46" cy="46" r="46" fill="#F9AB37"/>
<path d="M52.9262 72.1257H38.0615C38.7624 67.7828 39.4332 63.5603 40.1298 59.3422C40.6071 56.4483 41.2219 53.576 41.5702 50.6693C41.682 49.7319 41.3896 48.5624 40.8736 47.7626C39.1279 45.0451 39.3773 41.8331 41.7035 39.7863C43.9567 37.8041 47.3149 37.8514 49.5379 39.8981C51.7265 41.9105 51.8985 45.1053 50.2861 47.7454C49.7013 48.7 49.4906 50.1318 49.6583 51.2627C50.6172 57.6265 51.748 63.9645 52.8101 70.3155C52.9047 70.8701 52.8832 71.442 52.9262 72.13V72.1257Z" fill="white"/>
<path d="M12 43.7335C12.1677 35.3874 15.0916 27.7422 21.0469 21.3053C21.5629 20.7463 22.2638 20.0455 22.9131 20.0025C23.614 19.9595 24.8265 20.4883 24.9684 21C25.1877 21.7826 24.9684 23.0296 24.4267 23.623C21.0297 27.3424 18.424 31.5003 17.2072 36.3936C14.5928 46.8939 16.8847 56.2375 24.1042 64.3385C24.2461 64.4976 24.4009 64.6524 24.5513 64.8029C25.5188 65.7532 25.7209 66.841 24.7448 67.8257C23.6785 68.9007 22.4659 68.6599 21.5629 67.5849C19.9548 65.6672 18.2735 63.7752 16.9492 61.6683C13.5996 56.3278 12.0559 50.4241 12 43.7335Z" fill="white"/>
<path d="M79.1381 44.5978C78.9274 52.9869 76.0551 60.7266 69.9535 67.155C69.4075 67.7311 68.569 68.2944 67.8337 68.346C67.2317 68.389 66.1439 67.7483 66.045 67.2539C65.8902 66.4885 66.1396 65.3619 66.6598 64.79C70.147 60.9588 72.7915 56.6719 73.9997 51.6109C76.4163 41.5062 74.2706 32.4678 67.4639 24.5733C67.0898 24.139 66.4577 23.7692 66.3588 23.2876C66.1826 22.4104 65.9719 21.0086 66.4147 20.6733C67.0468 20.1917 68.5905 20.0627 69.1581 20.5185C70.5297 21.6192 71.6606 23.0726 72.7141 24.5131C76.9924 30.3652 79.0134 36.9698 79.1381 44.6021V44.5978Z" fill="white"/>
<path d="M21.2063 44.1592C21.3697 38.0104 23.4078 32.6484 27.4626 28.0561C28.486 26.8952 29.6341 25.588 31.2078 27.0543C32.6268 28.3743 31.6464 29.574 30.623 30.7307C23.6701 38.5694 23.6572 49.749 30.5542 57.5576C30.7434 57.7726 30.9455 57.979 31.1304 58.194C32.0506 59.2604 32.2828 60.4041 31.1519 61.4103C30.0942 62.352 29.0407 61.9865 28.1248 61.0405C25.0117 57.8242 22.922 54.036 21.9631 49.6716C21.5675 47.8657 21.4514 45.9995 21.2063 44.1592Z" fill="white"/>
<path d="M69.9069 44.3269C69.7349 50.566 67.5763 55.9538 63.4484 60.5761C62.4896 61.6511 61.363 62.6487 59.9827 61.4146C58.5509 60.1333 59.3593 58.9035 60.4084 57.721C67.4602 49.7791 67.4946 38.6812 60.5245 30.7264C60.3826 30.563 60.2364 30.4082 60.0859 30.2534C59.0884 29.2386 58.8218 28.0863 59.8881 27.0457C60.9889 25.9707 62.1112 26.4136 63.0744 27.4155C66.1703 30.6447 68.2514 34.4415 69.1845 38.8102C69.5715 40.6204 69.6747 42.4866 69.9069 44.3312V44.3269Z" fill="white"/>
<path d="M30.4588 44.0561C30.4545 40.2378 31.7702 36.9226 34.2856 34.0718C35.2273 33.0054 36.3367 32.2959 37.6009 33.4268C38.822 34.5189 38.3662 35.6541 37.4203 36.8022C33.5547 41.4804 33.516 46.8123 37.3257 51.4691C38.2931 52.6515 38.9381 53.8555 37.5665 54.9993C36.1733 56.1645 35.0467 55.2358 34.105 54.1135C31.6627 51.2068 30.39 47.8744 30.463 44.0561H30.4588Z" fill="white"/>
<path d="M60.6872 42.7102C60.6614 48.0979 59.3456 51.4131 56.8646 54.2811C55.9358 55.3518 54.8179 56.0785 53.5408 54.9906C52.3024 53.9328 52.7238 52.7547 53.6526 51.6109C57.5827 46.7778 57.6042 41.5105 53.6913 36.7849C52.7324 35.6282 52.3024 34.4759 53.5193 33.4181C54.762 32.3345 55.8928 33.0096 56.8431 34.0932C59.4015 37.0128 60.7087 40.3968 60.6829 42.7145L60.6872 42.7102Z" fill="white"/>
</svg>
