<svg width="92" height="92" viewBox="0 0 92 92" fill="none" xmlns="http://www.w3.org/2000/svg">
<circle cx="46" cy="46" r="46" fill="#F9AB37"/>
<path d="M17.8465 57.9876C17.6651 57.8691 17.6312 57.828 17.6022 57.8304C13.979 57.9755 11.8142 55.6971 12.0126 51.491C12.2036 47.4299 12.0464 43.352 12.0561 39.2813C12.0633 35.9846 13.9354 34.1077 17.2297 34.1052C26.0169 34.098 34.8017 34.0883 43.5865 34.1222C44.5951 34.127 45.2409 33.8682 45.8891 33.0241C52.139 24.9044 64.2544 25.0133 70.3665 33.2272C70.8623 33.8924 71.3654 34.1657 72.1684 34.1149C73.0512 34.0593 73.9438 34.0714 74.8266 34.1149C77.3251 34.2383 79.2625 36.1515 79.2867 38.6403C79.3302 43.4753 79.3254 48.3128 79.2867 53.1502C79.2673 55.6487 77.3928 57.5571 74.8895 57.7482C74.4928 57.7796 74.0913 57.753 73.4866 57.753C73.4866 58.943 73.4939 60.0508 73.4866 61.1586C73.4745 62.738 72.9521 63.2774 71.4017 63.304C70.4342 63.3209 69.4667 63.3112 68.4992 63.304C67.5317 63.2967 66.9198 62.8372 66.6586 61.8842C66.3804 60.8756 66.0007 59.8912 65.7685 58.8729C65.575 58.0167 65.1735 57.7312 64.2786 57.7433C60.1281 57.7917 55.9775 57.7651 51.8246 57.7651C43.6421 57.7651 35.462 57.7869 27.2795 57.7385C26.2322 57.7312 25.7654 58.0529 25.5549 59.0519C25.3493 60.0339 24.9793 60.9796 24.7036 61.9495C24.4472 62.8493 23.8377 63.2846 22.9331 63.304C21.8446 63.3257 20.7562 63.3475 19.6702 63.3015C18.4318 63.2459 17.8779 62.6364 17.8538 61.3666C17.832 60.208 17.8489 59.0494 17.8489 57.9949L17.8465 57.9876ZM70.8599 42.3289C70.8454 35.2227 65.1009 29.5 58.0044 29.5242C50.9514 29.5484 45.1852 35.3485 45.1949 42.4111C45.2046 49.4423 51.0119 55.2013 58.0891 55.194C65.1832 55.1868 70.8744 49.452 70.8599 42.3264V42.3289ZM29.079 41.8572C31.6525 41.8572 34.226 41.8475 36.7971 41.8621C37.6026 41.8669 38.3499 41.7 38.3233 40.7567C38.2992 39.8424 37.559 39.6707 36.7536 39.6707C31.6477 39.6828 26.5418 39.6828 21.4359 39.6707C20.6183 39.6707 19.9048 39.8739 19.9145 40.7978C19.9266 41.7435 20.6812 41.8693 21.4794 41.8621C24.0118 41.8427 26.5442 41.8548 29.079 41.8548V41.8572ZM29.0814 46.997C31.6162 46.997 34.1535 46.9922 36.6883 46.9994C37.5155 47.0018 38.3475 46.9027 38.3112 45.865C38.2774 44.9266 37.4695 44.8226 36.6955 44.825C31.6235 44.8298 26.5514 44.8298 21.4794 44.8274C20.6982 44.8274 19.9266 44.9532 19.9218 45.9158C19.9169 46.8881 20.6909 46.9994 21.4721 46.997C24.007 46.9897 26.5442 46.997 29.079 46.997H29.0814ZM29.0766 52.1416C30.8084 52.1416 32.5402 52.1416 34.272 52.1416C35.2395 52.1416 36.2263 52.2456 37.1624 52.0739C37.6074 51.9916 37.9509 51.3724 38.3427 50.9975C37.9581 50.6589 37.6122 50.2429 37.172 50.0083C36.8866 49.8559 36.4609 49.9623 36.1005 49.9623C32.3152 49.9623 28.53 49.9623 24.7447 49.9696C23.4966 49.9696 22.2389 49.897 21.0053 50.0349C20.6038 50.0808 20.2676 50.6928 19.9 51.0435C20.2628 51.4015 20.5821 51.8223 21.0005 52.0908C21.2327 52.2383 21.6269 52.1392 21.9511 52.1392C24.3262 52.1392 26.7038 52.1392 29.079 52.1392L29.0766 52.1416ZM74.4759 54.8965C75.0709 54.0911 75.6078 53.6678 75.707 53.1575C75.857 52.3835 75.2958 51.8465 74.5097 51.8393C73.7237 51.832 73.1528 52.352 73.2883 53.1333C73.3778 53.646 73.9026 54.0814 74.4759 54.8965Z" fill="white"/>
<path d="M58.012 31.5899C64.0346 31.5778 68.8623 36.3862 68.8551 42.387C68.8478 48.3008 64.0055 53.1551 58.0942 53.1793C52.1466 53.2035 47.2704 48.3274 47.2632 42.3459C47.2559 36.4079 52.0595 31.602 58.012 31.5899ZM61.6425 42.3217C61.6207 40.3359 59.9735 38.7081 58.0095 38.7348C56.0552 38.7614 54.425 40.4375 54.4395 42.4112C54.454 44.3849 56.1036 45.9885 58.099 45.9715C60.0945 45.9546 61.6618 44.3389 61.6425 42.3217ZM66.3082 40.9019C66.1098 38.2389 65.019 36.5627 63.0163 35.484C62.3874 35.1454 61.7561 35.0849 61.3377 35.8033C60.9047 36.5482 61.328 37.0271 61.9545 37.3658C63.263 38.072 64.008 39.1242 64.1047 40.631C64.1507 41.3591 64.5183 41.9758 65.302 41.7848C65.7494 41.6759 66.0856 41.1051 66.3057 40.8995L66.3082 40.9019Z" fill="white"/>
</svg>
