<svg width="92" height="92" viewBox="0 0 92 92" fill="none" xmlns="http://www.w3.org/2000/svg">
<circle cx="46" cy="46" r="46" fill="#F9AB37"/>
<path d="M45.6897 54.9048C36.5538 54.9048 27.418 54.9048 18.2821 54.9048C14.6041 54.9019 13.006 53.3038 13.0031 49.646C13.0031 45.0766 12.9945 40.5073 13.006 35.9379C13.0175 32.7561 14.7541 31.0022 17.8956 31.0022C36.5019 30.9993 55.1112 30.9993 73.7175 31.0022C76.7868 31.0022 78.5292 32.7445 78.5407 35.8398C78.558 40.5044 78.5523 45.1718 78.5436 49.8364C78.5378 53.2519 76.9166 54.8962 73.5271 54.8991C64.247 54.9077 54.9669 54.9019 45.6868 54.9019L45.6897 54.9048ZM45.5628 50.5316C37.1048 50.5316 28.6498 50.5316 20.1918 50.5316C19.8081 50.5316 19.3956 50.4566 19.0466 50.572C18.7494 50.673 18.5244 50.9961 18.2706 51.2211C18.5129 51.4807 18.7148 51.8297 19.012 51.9711C19.2889 52.1009 19.6726 52.0144 20.0072 52.0144C36.9202 52.0144 53.8361 52.0144 70.7491 52.0144C71.1328 52.0144 71.5684 52.1038 71.8857 51.9509C72.1626 51.8182 72.3992 51.4259 72.4627 51.1114C72.4886 50.973 72.0588 50.6383 71.7934 50.5749C71.3838 50.4768 70.9338 50.5316 70.5011 50.5316C62.1873 50.5316 53.8765 50.5316 45.5628 50.5316ZM45.4532 47.1681C36.851 47.1681 28.2488 47.1565 19.6495 47.1969C19.1937 47.1969 18.7408 47.6354 18.285 47.8719C18.7293 48.12 19.1562 48.3969 19.6206 48.596C19.8226 48.6825 20.0937 48.6104 20.336 48.6104C37.0587 48.6104 53.7813 48.6104 70.5039 48.6104C70.8414 48.6104 71.2193 48.7056 71.502 48.5844C71.8742 48.4258 72.1742 48.094 72.5059 47.8373C72.1857 47.6152 71.8915 47.3094 71.5395 47.1969C71.1905 47.0844 70.778 47.1652 70.3943 47.1652C62.0806 47.1652 53.7669 47.1652 45.456 47.1652L45.4532 47.1681ZM45.7589 40.2823C47.7205 40.2823 49.685 40.314 51.6466 40.2534C52.0187 40.2419 52.3793 39.8611 52.7457 39.6534C52.4168 39.388 52.0909 38.8976 51.7591 38.8947C47.7869 38.8399 43.8147 38.8399 39.8424 38.8918C39.4934 38.8976 39.153 39.362 38.8068 39.613C39.1616 39.838 39.5107 40.2419 39.8741 40.2534C41.8357 40.3169 43.7973 40.2823 45.7589 40.2851V40.2823Z" fill="white"/>
<path d="M58.0539 68.8523C58.9683 66.4003 58.0597 64.5801 56.9 62.7194C55.8759 61.0723 56.4269 59.2001 58.2039 57.6625C57.0529 59.9761 57.9414 61.8425 59.1587 63.7723C60.2232 65.4599 59.7328 67.4244 58.0539 68.8523Z" fill="white"/>
<path d="M33.7153 57.7578C32.6797 59.9416 33.4355 61.733 34.6326 63.5647C35.7548 65.2783 35.3596 67.185 33.799 68.8726C33.799 68.5437 33.7384 68.2726 33.8076 68.0418C34.3326 66.3283 33.8336 64.8686 32.8672 63.432C31.4681 61.3551 31.7191 59.581 33.7153 57.7549V57.7578Z" fill="white"/>
<path d="M46.5468 57.6885C45.4159 60.0684 46.2294 61.8483 47.3718 63.683C48.4478 65.408 48.0064 67.3206 46.2323 69.0254C47.242 66.3975 46.2583 64.5166 45.1332 62.5695C44.1726 60.9079 44.7669 59.053 46.5439 57.6885H46.5468Z" fill="white"/>
</svg>
