<svg width="92" height="92" viewBox="0 0 92 92" fill="none" xmlns="http://www.w3.org/2000/svg">
<circle cx="46" cy="46" r="46" fill="#F9AB37"/>
<path d="M68.1725 36.5246C67.8197 37.7351 67.754 38.3335 67.4877 38.8246C65.0354 43.2933 62.642 47.8 60.0306 52.1788C58.6955 54.4166 56.4024 54.8351 54.2061 53.6453C45.4071 48.8723 36.653 44.0162 27.9578 39.0598C25.63 37.7351 25.0593 35.4593 26.3356 33.052C28.5942 28.8047 30.9253 24.5919 33.3499 20.438C34.7645 18.0203 37.0888 17.3355 39.548 18.6775C48.1672 23.3779 56.7656 28.1198 65.2671 33.0278C66.5918 33.7922 67.3597 35.5146 68.1725 36.528V36.5246ZM60.8884 39.2604C60.0652 37.9357 59.9096 37.4308 59.5671 37.1817C58.7924 36.6214 57.9312 36.1787 57.0907 35.7118C51.5463 32.63 46.0193 29.5172 40.423 26.5323C39.7763 26.1864 38.749 26.5599 37.8982 26.598C38.289 27.3485 38.5034 28.3343 39.1122 28.7943C40.3262 29.7109 41.7616 30.3369 43.107 31.084C47.8109 33.6953 52.4906 36.3585 57.2463 38.873C58.0488 39.2985 59.1798 39.1013 60.8884 39.2604Z" fill="white"/>
<path d="M19.7778 62.0121C26.8232 61.4414 31.8592 58.5776 35.3144 53.009C36.1342 51.6913 36.3901 50.5879 35.3871 49.0765C34.6504 47.9662 34.6711 46.351 34.3564 44.964C34.6262 44.8015 34.8994 44.6424 35.1692 44.4798C38.4446 46.2991 41.7166 48.1218 44.992 49.9411C44.9885 50.2939 44.9816 50.6433 44.9782 50.9961C43.5186 51.4076 42.0348 51.7466 40.6132 52.262C39.7382 52.5767 38.6002 52.9537 38.1956 53.6558C34.512 60.0234 29.0818 63.6758 21.8046 64.6269C21.2408 64.6996 20.684 64.8483 19.7813 65.0282C19.7813 67.3144 19.8989 69.611 19.7121 71.8868C19.6533 72.6235 18.7955 73.298 18.3044 74.0001C17.872 73.2634 17.0731 72.5301 17.0662 71.7865C16.9762 63.6965 16.9797 55.6066 17.0662 47.52C17.0731 46.7626 17.8305 46.0155 18.2387 45.2615C18.754 46.0259 19.6879 46.7799 19.7121 47.5615C19.8504 52.255 19.7813 56.952 19.7813 62.019L19.7778 62.0121Z" fill="white"/>
<path d="M63.4066 50.8127C63.2856 47.3885 66.3673 42.1935 69.5493 41.3288C70.9709 40.9414 73.0046 41.5156 74.2636 42.3768C74.8689 42.7884 74.689 45.04 74.2152 46.1918C73.2675 48.4884 71.8944 50.6086 70.6561 52.7807C69.7707 54.3337 69.0859 56.5092 66.7305 55.769C64.4754 55.0635 62.9985 53.424 63.4066 50.8127Z" fill="white"/>
</svg>
