<svg width="12" height="16" viewBox="0 0 12 16" fill="none" xmlns="http://www.w3.org/2000/svg">
<path d="M5.68879 15.674C5.75258 15.7743 5.83895 15.8565 5.94029 15.9134C6.04163 15.9702 6.15476 16 6.26969 16C6.38462 16 6.49782 15.9702 6.59916 15.9134C6.7005 15.8565 6.78687 15.7743 6.85066 15.674C11.1935 9.11756 11.9999 8.43015 11.9999 5.99489C11.9999 4.40495 11.3979 2.88012 10.3262 1.75586C9.25458 0.631604 7.8011 0 6.28557 0C4.77005 0 3.31657 0.631604 2.24493 1.75586C1.17329 2.88012 0.571289 4.40495 0.571289 5.99489C0.571289 8.43015 1.34593 9.11756 5.68879 15.674ZM6.28557 8.49276C5.65411 8.49276 5.04853 8.2296 4.60201 7.76115C4.1555 7.29271 3.90462 6.65737 3.90462 5.99489C3.90462 5.33242 4.1555 4.69707 4.60201 4.22863C5.04853 3.76019 5.65411 3.49702 6.28557 3.49702C6.91704 3.49702 7.52262 3.76019 7.96914 4.22863C8.41565 4.69707 8.66653 5.33242 8.66653 5.99489C8.66653 6.65737 8.41565 7.29271 7.96914 7.76115C7.52262 8.2296 6.91704 8.49276 6.28557 8.49276Z" fill="white"/>
</svg>
