<svg width="21" height="12" viewBox="0 0 21 12" fill="none" xmlns="http://www.w3.org/2000/svg">
<path d="M0.616627 0.729705C1.4453 1.42917 2.19524 2.06208 2.94518 2.695C5.10335 4.51758 7.25894 6.34336 9.42033 8.16147C10.0902 8.72462 10.9228 8.71502 11.5914 8.15059C14.2246 5.92803 16.8545 3.70292 19.4871 1.47973C19.7555 1.25319 20.0272 1.03048 20.3641 0.750184C20.4158 1.02216 20.4932 1.24039 20.4939 1.45861C20.5016 4.48622 20.501 7.51447 20.4977 10.5421C20.4971 11.3651 19.933 11.9468 19.1024 11.9973C19.0166 12.0025 18.9307 11.9986 18.8443 11.9986C13.2855 11.9986 7.72684 11.9986 2.16749 11.9986C1.04904 11.9986 0.500458 11.4598 0.500458 10.361C0.500458 7.41848 0.497876 4.47598 0.504975 1.53348C0.504975 1.29094 0.570805 1.0484 0.616627 0.729705Z" fill="white"/>
<path d="M1.31752 0.0891133C1.58922 0.0539159 1.79639 0.00335975 2.00292 0.00335975C7.66811 -0.00111992 13.334 -0.00111992 18.9991 0.00335975C19.2044 0.00335975 19.409 0.053276 19.7013 0.0910331C18.9301 0.742504 18.2369 1.32806 17.5444 1.91362C15.4289 3.70292 13.3133 5.49287 11.1977 7.28153C10.6511 7.74422 10.3678 7.7487 9.82628 7.29177C7.11953 5.00906 4.41408 2.72379 1.70926 0.438527C1.59632 0.343174 1.48854 0.242062 1.31752 0.0884733V0.0891133Z" fill="white"/>
</svg>
