<svg width="17" height="16" viewBox="0 0 17 16" fill="none" xmlns="http://www.w3.org/2000/svg">
<path d="M3.65585 0.0152688C4.01836 -0.0527312 4.24909 0.110938 4.41979 0.415765C4.78934 1.0756 5.16639 1.73075 5.5439 2.38636C5.74603 2.73761 5.95472 3.08512 6.16106 3.43356C6.36131 3.77168 6.3721 4.00007 6.10573 4.28614C5.81497 4.59847 5.4745 4.86437 5.16029 5.1556C4.89767 5.39946 4.62426 5.63535 4.394 5.90688C4.30584 6.01053 4.29646 6.20562 4.30302 6.35709C4.30818 6.48231 4.37618 6.61127 4.43949 6.72617C5.18655 8.08101 6.05461 9.34065 7.24015 10.3597C8.03224 11.0407 8.91249 11.5865 9.82228 12.0879C10.2786 12.3392 10.4999 12.2928 10.8535 11.9082C11.1968 11.5345 11.5218 11.1434 11.8613 10.7663C11.9912 10.6219 12.1338 10.4868 12.282 10.3602C12.5038 10.1712 12.7547 10.1627 13 10.3044C14.0599 10.9164 15.1141 11.5378 16.1749 12.1479C16.4427 12.3017 16.5351 12.5235 16.4896 12.8105C16.4361 13.1482 16.3826 13.4868 16.3039 13.8193C16.1491 14.4707 15.712 14.9091 15.1539 15.2295C14.3966 15.6642 13.5914 16.0042 12.7069 16C12.1999 15.9976 11.6761 15.9165 11.1907 15.7688C9.55778 15.2717 7.99613 14.6114 6.62909 13.5585C4.51734 11.9326 2.71886 10.0361 1.59428 7.58531C1.1436 6.60377 0.734193 5.59784 0.552234 4.51921C0.423738 3.75761 0.539103 3.02603 0.823765 2.32164C0.974772 1.94788 1.16423 1.58724 1.36167 1.23505C1.75138 0.540979 2.39246 0.221614 3.14702 0.0888964C3.31585 0.0593516 3.48608 0.039655 3.65585 0.0152688Z" fill="white"/>
</svg>
