<svg width="60" height="45" viewBox="0 0 60 45" fill="none" xmlns="http://www.w3.org/2000/svg">
<path d="M49.25 26.25V25.75H48.75H34.25V0.5H59.5V26.25C59.5 30.2725 57.8652 34.8575 55.2065 38.4345C52.5441 42.0166 48.9256 44.5 45 44.5H38.309L41.5685 37.981C41.5868 37.9792 41.6058 37.9773 41.6255 37.9752C41.8505 37.9511 42.1664 37.9035 42.5431 37.8093C43.2961 37.6211 44.2982 37.2451 45.3 36.4937C47.3267 34.9737 49.25 31.997 49.25 26.25ZM15.5 26.25V25.75H15H0.5V0.5H25.75V26.25C25.75 30.2725 24.1152 34.8575 21.4565 38.4345C18.7941 42.0166 15.1756 44.5 11.25 44.5H4.55902L7.81852 37.981C7.83682 37.9792 7.85583 37.9773 7.87553 37.9752C8.10046 37.9511 8.41641 37.9035 8.79314 37.8093C9.54606 37.6211 10.5482 37.2451 11.55 36.4937C13.5767 34.9737 15.5 31.997 15.5 26.25Z" stroke="white"/>
</svg>
