<svg fill="none" viewBox="549.942 12.600000000000001 22.650000000000002 19.8" xmlns="http://www.w3.org/2000/svg" style="max-height: 500px" width="22.650000000000002" height="19.8">
<g mask="url(#mask0_426_14542)">
<path fill="#28A745" d="M565.214 27.362C563.754 29.2015 561.499 30.3812 558.968 30.3812C554.568 30.3812 551 26.8137 551 22.4129C551 18.012 554.568 14.4445 558.968 14.4445C563.369 14.4445 566.937 18.012 566.937 22.4129C566.937 23.0815 566.854 23.7308 566.699 24.3514L570.24 26.6541C571.012 27.156 571.231 28.1885 570.729 28.9602C570.227 29.7319 569.194 29.9507 568.423 29.4488L565.214 27.362ZM564.417 22.4128C564.417 25.4215 561.978 27.8606 558.969 27.8606C555.961 27.8606 553.521 25.4215 553.521 22.4128C553.521 19.4041 555.961 16.965 558.969 16.965C561.978 16.965 564.417 19.4041 564.417 22.4128Z" clip-rule="evenodd" fill-rule="evenodd"/>
</g>
</svg>