<svg width="162" height="223" viewBox="0 0 162 223" fill="none" xmlns="http://www.w3.org/2000/svg">
<path d="M59.0205 79.7072C58.5234 77.5032 58.0317 75.7188 57.7245 73.9007C56.8251 68.5922 56.1938 63.2332 55.0989 57.9638C53.9425 52.3811 54.5402 47.0613 56.3223 41.7415C56.8698 40.1025 57.2943 38.2901 57.1994 36.5896C56.8307 30.1454 57.5569 23.8355 60.1825 17.9899C65.1488 6.93641 77.4166 -2.61234 90.0921 0.654485C102.159 3.75909 110.684 11.0983 113.605 23.5223C115.142 30.0727 115.7 36.9028 116.231 43.6379C117.074 54.3669 112.907 63.8709 108.304 73.2015C108.142 73.5315 107.902 73.828 107.712 74.1469C105.488 77.9451 105.516 77.906 109.119 80.4456C110.091 81.128 110.823 82.1405 111.689 82.9852C112.415 83.6956 113.063 84.5851 113.935 85.027C118.343 87.2757 118.717 88.8756 115.605 92.5843C123.957 98.0607 132.314 103.548 140.671 109.03C143.632 110.971 145.14 113.841 146.168 117.158C148.23 123.815 150.816 130.326 152.57 137.056C154.135 143.058 155.129 149.25 155.894 155.415C156.559 160.746 156.704 166.161 156.788 171.542C156.866 176.498 157.945 181.107 160.157 185.527C160.984 187.177 161.777 188.978 161.972 190.774C162.134 192.284 161.805 194.136 161.006 195.4C158.403 199.517 155.447 203.41 153.967 208.154C153.833 208.573 153.285 209.032 152.839 209.161C148.191 210.475 144.364 212.836 141.627 216.987C140.789 218.262 139.157 219.034 137.839 219.957C137.336 220.309 136.342 220.287 136.146 220.706C134.929 223.319 132.688 222.983 130.454 222.983C98.2371 222.961 66.0203 222.961 33.8035 222.983C31.8092 222.983 30.3455 222.357 28.5858 221.221C25.1055 218.978 22.1782 216.299 19.2398 213.44C17.1505 211.409 14.0221 210.486 11.659 208.68C9.73173 207.208 8.12843 205.251 6.58659 203.343C4.72632 201.044 3.13978 198.527 1.33537 196.183C-0.245579 194.136 -0.580763 190.203 1.30185 187.781C3.34089 185.157 3.76546 182.288 3.88836 179.166C4.50845 163.459 7.51393 148.104 11.3853 132.95C13.1394 126.075 16.0332 119.457 18.7594 112.868C21.776 105.579 28.7925 102.955 35.2113 99.8396C37.3453 98.8047 39.0883 97.7195 40.5742 95.7504C44.3898 90.6992 48.4958 85.8828 54.4229 83.0356C56.1435 82.2077 57.5792 80.7756 59.0485 79.696L59.0205 79.7072ZM124.499 195.159C125.61 195.075 126.8 195.036 127.973 194.88C129.756 194.645 130.32 193.543 129.823 191.892C128.873 188.743 127.879 185.605 126.962 182.651C125.046 184.861 123.024 187.199 121.141 189.364C122.275 191.316 123.37 193.207 124.499 195.159ZM34.1387 175.676C30.0439 182.433 30.3232 189.258 34.1387 191.624V175.676Z" fill="#BDBDBD"/>
</svg>
