<svg width="173" height="224" viewBox="0 0 173 224" fill="none" xmlns="http://www.w3.org/2000/svg">
<path d="M138.444 184.62C136.747 192.792 138.25 199.819 141.406 206.63C142.393 208.768 143.111 211.033 143.836 213.276C144.599 215.624 144.225 217.59 142.004 219.152C139.835 220.677 139.693 222.457 140.538 225.245C141.922 229.791 142.587 234.68 142.737 239.457C143.066 249.729 142.916 260.016 142.789 270.288C142.782 271.051 141.503 272.06 140.598 272.479C139.768 272.86 138.639 272.621 137.644 272.621C105.622 272.621 73.6002 272.583 41.5708 272.681C38.1906 272.688 36.7473 272.008 36.0668 268.195C34.3692 258.693 35.7452 249.378 36.5902 240.003C37.0016 235.472 37.6073 231.129 36.6052 226.404C35.7976 222.584 37.2708 218.143 38.2953 214.113C38.9833 211.392 39.1478 210.106 35.7901 209.583C31.9836 208.985 28.3268 207.348 25.3504 211.444C25.0289 211.893 22.8901 211.601 22.0675 211.003C16.8028 207.168 11.9195 202.735 6.40799 199.318C1.95095 196.56 -0.0457456 192.949 0.61982 188.187C1.80138 179.836 2.90817 171.38 5.18904 163.291C10.3864 144.863 16.7729 126.816 25.0363 109.486C26.6143 106.182 27.549 102.392 29.785 99.6479C31.9612 96.979 35.2666 95.0726 38.3551 93.3382C47.3216 88.3068 56.5722 83.7838 65.4264 78.5655C71.9549 74.7154 74.2209 64.4957 70.6762 57.7373C69.6068 55.7038 67.0567 54.4778 65.7704 52.5116C62.5623 47.5998 64.4019 42.0975 64.5814 36.8418C64.7384 32.3263 66.1219 27.7734 65.8003 23.3252C65.217 15.3333 68.4327 7.54326 78.0572 2.60908C86.0589 -1.49526 93.9036 0.186847 101.606 1.34563C109.93 2.6016 116.892 14.7801 116.458 23.3326C116.122 29.9041 116.922 36.5577 117.565 43.1441C118.021 47.7942 117.699 51.9584 114.297 55.5693C111.066 58.9933 109.608 72.4501 112.338 76.3003C113.826 78.4011 116.151 80.2925 118.515 81.3092C123.533 83.4623 129.007 84.5688 133.95 86.849C139.424 89.3834 144.584 92.6504 149.721 95.8501C150.955 96.6202 151.987 98.2724 152.406 99.7152C155.315 109.718 158.217 119.736 160.752 129.836C162.412 136.445 163.429 143.211 164.775 149.902C164.91 150.575 165.216 151.711 165.575 151.763C168.806 152.249 168.791 154.485 168.926 156.997C169 158.395 169.883 159.8 170.593 161.101C172.695 164.959 173.465 168.741 170.705 172.681C170.189 173.414 170.137 174.588 170.152 175.552C170.227 180.516 168.335 184.523 164.371 187.476C163.339 188.246 162.061 188.889 160.804 189.129C152.907 190.631 145.212 190.781 138.429 184.62H138.444Z" fill="#BDBDBD"/>
</svg>
