<svg xmlns="http://www.w3.org/2000/svg" width="281" height="188" viewBox="0 0 300 188" fill="none">
<g filter="url(#filter0_d_502_19964)">






<mask id="mask0_502_19964" style="mask-type:luminance" maskUnits="userSpaceOnUse" x="69" y="73" width="20" height="14">
<path d="M85.2544 86.882L70.4204 80.3069C69.6499 79.2934 69.2793 78.0318 69.3793 76.7626C69.4793 75.4934 70.0428 74.3053 70.9624 73.4249L85.7964 79.9999C84.8768 80.8803 84.3132 82.0684 84.2133 83.3376C84.1133 84.6069 84.4839 85.8684 85.2544 86.882Z" fill="white"/>
</mask>



<path opacity="0.2" d="M110.301 35.0876L69.002 167.575L211.997 167.986L174.815 34.8806C174.815 34.8806 162.463 29.0156 142.498 29.0156C121.977 29.0186 110.301 35.0876 110.301 35.0876Z" fill="url(#paint2_linear_502_19964)"/>

<path opacity="0.59" d="M136.78 167.47C164.647 167.47 187.239 165.666 187.239 163.441C187.239 161.216 164.647 159.412 136.78 159.412C108.912 159.412 86.3203 161.216 86.3203 163.441C86.3203 165.666 108.912 167.47 136.78 167.47Z" fill="url(#paint3_radial_502_19964)"/>
<path d="M187.75 78.9624L187.819 78.8954C187.879 78.8374 187.94 78.7814 188.001 78.7274L188.065 78.6714C188.157 78.5934 188.25 78.5194 188.345 78.4494L188.404 78.4074C188.49 78.3454 188.578 78.2867 188.666 78.2314L188.715 78.1994C188.761 78.1714 188.807 78.1454 188.853 78.1194L188.941 78.0694C188.994 78.0414 189.047 78.0144 189.1 77.9884L189.171 77.9534C189.249 77.9168 189.326 77.8834 189.404 77.8534L189.446 77.8374C189.511 77.8114 189.575 77.7874 189.641 77.7644L189.675 77.7534C189.767 77.7224 189.859 77.6944 189.952 77.6704L190.03 77.6504C190.13 77.6254 190.23 77.6024 190.338 77.5844H190.356C190.456 77.5674 190.556 77.5554 190.65 77.5454L190.729 77.5384C190.829 77.5294 190.936 77.5234 191.039 77.5224L176.208 70.9404C176.108 70.9404 176.001 70.9474 175.898 70.9564L175.819 70.9634C175.719 70.9734 175.619 70.9854 175.525 71.0024H175.507C175.407 71.0204 175.302 71.0434 175.199 71.0684L175.121 71.0894C175.028 71.1144 174.935 71.1414 174.843 71.1734L174.818 71.1804H174.81C174.743 71.2034 174.677 71.2284 174.61 71.2554L174.572 71.2694C174.493 71.3014 174.415 71.3347 174.338 71.3694L174.269 71.4044C174.215 71.4304 174.161 71.4574 174.108 71.4864C174.078 71.5024 174.049 71.5194 174.02 71.5364C173.974 71.5624 173.928 71.5884 173.882 71.6164L173.865 71.6264L173.833 71.6484C173.744 71.7037 173.657 71.7624 173.571 71.8244L173.511 71.8674C173.416 71.934 173.323 72.0081 173.232 72.0894L173.211 72.1064L173.168 72.1464C173.106 72.2004 173.046 72.2561 172.986 72.3134L172.917 72.3804C172.839 72.4584 172.762 72.5384 172.688 72.6224L125.363 126.112C125.314 126.167 125.263 126.218 125.212 126.267L125.171 126.305C125.13 126.342 125.088 126.377 125.045 126.41L125.001 126.445C124.945 126.486 124.889 126.525 124.831 126.56C124.773 126.595 124.731 126.618 124.675 126.644L124.628 126.669C124.561 126.701 124.491 126.73 124.42 126.754C124.359 126.775 124.298 126.792 124.237 126.807L124.183 126.818C124.137 126.828 124.09 126.837 124.043 126.843L123.988 126.85C123.926 126.857 123.864 126.862 123.802 126.862C123.729 126.863 123.657 126.859 123.586 126.85L123.519 126.84C123.469 126.833 123.419 126.824 123.371 126.812C123.338 126.804 123.305 126.796 123.271 126.786L123.221 126.771C123.167 126.753 123.113 126.733 123.061 126.71L137.894 133.285C137.947 133.308 138 133.328 138.055 133.346L138.105 133.361L138.168 133.38L138.205 133.387C138.254 133.399 138.305 133.407 138.353 133.415L138.42 133.425C138.553 133.441 138.687 133.441 138.82 133.425L138.875 133.418C138.922 133.412 138.968 133.403 139.015 133.393L139.068 133.382C139.129 133.367 139.189 133.351 139.249 133.33C139.32 133.306 139.389 133.277 139.457 133.245C139.473 133.238 139.488 133.228 139.504 133.22C139.556 133.194 139.604 133.167 139.66 133.136H139.668C139.723 133.102 139.777 133.065 139.831 133.025L139.875 132.99C139.903 132.968 139.932 132.947 139.959 132.923L140.001 132.884L140.042 132.847C140.094 132.798 140.142 132.747 140.193 132.692L187.517 79.2024C187.596 79.1204 187.672 79.0404 187.75 78.9624Z" fill="url(#paint4_linear_502_19964)"/>
<path d="M112.765 110.454L112.82 110.415C112.92 110.344 113.02 110.276 113.12 110.215L113.151 110.197C113.213 110.16 113.275 110.124 113.338 110.089L113.415 110.049C113.463 110.024 113.515 109.999 113.56 109.975L113.649 109.934L113.787 109.873L113.88 109.836L114.017 109.784L114.1 109.755C114.2 109.721 114.3 109.691 114.4 109.664L114.448 109.653C114.541 109.63 114.634 109.61 114.727 109.593L114.779 109.583C114.879 109.566 114.979 109.552 115.079 109.543L115.145 109.537C115.245 109.528 115.353 109.522 115.456 109.521C115.538 109.521 115.619 109.521 115.701 109.526L115.777 109.531C115.834 109.531 115.89 109.539 115.946 109.546L116.032 109.556C116.087 109.563 116.142 109.572 116.197 109.581L116.275 109.595C116.342 109.609 116.411 109.624 116.483 109.641L116.512 109.648C116.605 109.672 116.696 109.7 116.787 109.731L116.853 109.754C116.944 109.786 117.034 109.821 117.123 109.86L102.292 103.285C102.203 103.246 102.113 103.211 102.022 103.179L101.956 103.156C101.865 103.125 101.774 103.097 101.681 103.073L101.655 103.067C101.588 103.05 101.519 103.035 101.447 103.021L101.369 103.007C101.314 102.998 101.259 102.989 101.204 102.982L101.118 102.972C101.062 102.966 101.006 102.961 100.949 102.957L100.873 102.952C100.792 102.952 100.71 102.946 100.628 102.947C100.528 102.947 100.421 102.954 100.317 102.963L100.251 102.969C100.15 102.979 100.05 102.993 99.951 103.009L99.899 103.019C99.8057 103.037 99.7127 103.057 99.62 103.079L99.572 103.09C99.472 103.116 99.372 103.147 99.272 103.18L99.242 103.189L99.19 103.209L99.053 103.26L98.96 103.298C98.914 103.317 98.868 103.338 98.822 103.359L98.733 103.4C98.684 103.423 98.633 103.448 98.588 103.474L98.511 103.514C98.448 103.548 98.386 103.585 98.324 103.622L98.295 103.639C98.195 103.702 98.095 103.769 97.995 103.839L97.94 103.878C97.8453 103.945 97.752 104.019 97.66 104.1L97.638 104.117L97.607 104.145C97.514 104.226 97.422 104.31 97.334 104.399L112.168 110.974C112.257 110.885 112.349 110.801 112.442 110.72L112.494 110.674C112.579 110.598 112.67 110.524 112.765 110.454Z" fill="#0F6A35"/>
<path d="M127.628 160.315L100.701 128.822L85.8672 122.247L112.794 153.74C113.938 155.082 115.368 156.15 116.98 156.866L131.814 163.441C130.202 162.725 128.772 161.657 127.628 160.315Z" fill="#0F6032"/>
<path d="M101.242 121.939L86.4082 115.364L97.3262 104.401L112.16 110.976L101.242 121.939Z" fill="#0F7A32"/>
<path d="M191.038 77.5152C191.573 77.5065 192.103 77.6067 192.598 77.8098C193.092 78.0128 193.54 78.3144 193.914 78.6962L203.814 88.7302C204.648 89.6858 205.098 90.9176 205.074 92.186C205.051 93.4545 204.557 94.6689 203.688 95.5932L147.199 159.441C145.948 160.899 144.419 162.092 142.701 162.95C140.983 163.809 139.111 164.316 137.194 164.441C137.05 164.447 136.906 164.451 136.764 164.453C135.031 164.477 133.314 164.119 131.736 163.403C130.157 162.688 128.755 161.633 127.631 160.314L100.704 128.821C99.9331 127.808 99.5625 126.546 99.6625 125.277C99.7624 124.008 100.326 122.82 101.246 121.939L112.163 110.975C113.029 110.075 114.214 109.552 115.463 109.519C116.047 109.509 116.625 109.629 117.157 109.871C117.689 110.112 118.161 110.468 118.538 110.913L137.273 132.824C137.441 133.022 137.65 133.181 137.886 133.288C138.123 133.395 138.38 133.448 138.639 133.444C138.938 133.436 139.231 133.364 139.501 133.235C139.77 133.106 140.009 132.921 140.202 132.693L187.527 79.2032C187.961 78.6919 188.499 78.2775 189.104 77.9868C189.708 77.696 190.368 77.5354 191.038 77.5152Z" fill="#0FBD4D"/>
<mask id="mask1_502_19964" style="mask-type:luminance" maskUnits="userSpaceOnUse" x="84" y="115" width="18" height="14">
<path d="M100.7 128.822L85.8657 122.247C85.0952 121.234 84.7246 119.972 84.8246 118.703C84.9246 117.434 85.4881 116.246 86.4077 115.365L101.242 121.94C100.322 122.821 99.7585 124.009 99.6586 125.278C99.5586 126.547 99.9292 127.809 100.7 128.822Z" fill="white"/>
</mask>
<g mask="url(#mask1_502_19964)">
<path d="M100.521 122.832C100.664 122.612 100.822 122.401 100.996 122.203C101.074 122.114 101.155 122.027 101.24 121.941L86.4055 115.366C86.3208 115.451 86.2395 115.538 86.1615 115.628C85.7866 116.058 85.4803 116.543 85.2535 117.066C84.8643 117.902 84.7153 118.829 84.8232 119.744C84.9311 120.659 85.2917 121.527 85.8645 122.248L100.699 128.823C100.126 128.102 99.7651 127.234 99.6572 126.319C99.5493 125.404 99.6983 124.477 100.087 123.641C100.209 123.36 100.354 123.09 100.521 122.832Z" fill="#0F6A35"/>
</g>
<path d="M191.038 77.5152C191.573 77.5065 192.103 77.6067 192.598 77.8098C193.092 78.0128 193.54 78.3144 193.914 78.6962L203.814 88.7302C204.648 89.6858 205.098 90.9176 205.074 92.186C205.051 93.4545 204.557 94.6689 203.688 95.5932L147.199 159.441C145.948 160.899 144.419 162.092 142.701 162.95C140.983 163.809 139.111 164.316 137.194 164.441C137.05 164.447 136.906 164.451 136.764 164.453C135.031 164.477 133.314 164.119 131.736 163.403C130.157 162.688 128.755 161.633 127.631 160.314L100.704 128.821C99.9331 127.808 99.5625 126.546 99.6625 125.277C99.7624 124.008 100.326 122.82 101.246 121.939L112.163 110.975C113.029 110.075 114.214 109.552 115.463 109.519C116.047 109.509 116.625 109.629 117.157 109.871C117.689 110.112 118.161 110.468 118.538 110.913L137.273 132.824C137.441 133.022 137.65 133.181 137.886 133.288C138.123 133.395 138.38 133.448 138.639 133.444C138.938 133.436 139.231 133.364 139.501 133.235C139.77 133.106 140.009 132.921 140.202 132.693L187.527 79.2032C187.961 78.6919 188.499 78.2775 189.104 77.9868C189.708 77.696 190.368 77.5354 191.038 77.5152Z" fill="url(#paint5_linear_502_19964)"/>
<g opacity="0.47">
<path d="M136.761 146.805C136.903 146.805 137.047 146.799 137.191 146.793C139.108 146.668 140.98 146.161 142.698 145.302C144.416 144.444 145.945 143.251 147.196 141.793L198.714 83.5631L193.914 78.6971C193.54 78.3153 193.092 78.0137 192.598 77.8107C192.103 77.6077 191.573 77.5075 191.038 77.5161C190.366 77.5356 189.706 77.696 189.1 77.987C188.494 78.2779 187.956 78.6929 187.52 79.2051L140.198 132.694C140.005 132.922 139.766 133.106 139.497 133.236C139.228 133.365 138.935 133.437 138.636 133.445C138.377 133.449 138.12 133.396 137.883 133.289C137.647 133.182 137.438 133.023 137.27 132.825L118.535 110.914C118.157 110.469 117.686 110.112 117.154 109.871C116.622 109.63 116.044 109.51 115.46 109.52C114.211 109.552 113.026 110.076 112.16 110.976L105.904 117.258L127.629 142.665C128.753 143.984 130.154 145.039 131.733 145.754C133.311 146.47 135.028 146.829 136.761 146.805Z" fill="#0FEC60"/>
</g>
<path opacity="0.2" d="M110.304 34.9572L69.0059 164.598L212.001 165L174.819 34.7546C174.819 34.7546 162.467 29.0156 142.502 29.0156C121.981 29.0186 110.304 34.9572 110.304 34.9572Z" fill="url(#paint6_linear_502_19964)"/>
<path d="M127.865 79.6555V79.6392C127.885 79.6347 127.865 79.6555 127.865 79.6555Z" fill="#F2BDA2"/>
<path d="M140.426 78.6434C146.184 76.45 147.957 67.2422 147.957 67.2422C148.673 68.5614 148.455 73.5343 148.455 73.5343C149.552 73.4481 151.589 71.6055 151.589 71.6055C149.767 77.1251 143.001 79.8734 143.001 79.8734L140.426 78.6434Z" fill="#FAE0B2"/>
<path d="M139.744 78.5199C139.744 78.5199 134.853 72.2748 135.437 66.3431C135.885 67.6548 136.551 68.8816 137.407 69.9718C137.407 69.9718 139.171 65.5144 140.313 64.8125C140.313 64.8125 138.237 73.9199 142.379 79.4083L139.744 78.5199Z" fill="#E5AB07"/>
<path d="M114.834 79.7148L114.645 84.2349C122.506 84.2848 130.304 85.6478 137.717 88.2677L137.861 87.6129L114.834 79.7148Z" fill="#F7CC7F"/>
<path d="M117.496 65.3309C115.114 66.5962 113.312 68.7301 112.463 71.2895C111.614 73.8488 111.784 76.6368 112.936 79.0745L114.826 79.7215L137.856 87.621L162.814 96.1819C161.719 95.7614 160.81 94.9637 160.25 93.9326C159.691 92.9015 159.518 91.7046 159.762 90.5572C159.95 89.3702 160.584 88.2998 161.535 87.5648C162.486 86.8298 163.681 86.4858 164.877 86.6028C159.894 85.4324 136.5 79.3988 117.496 65.3309Z" fill="#FAE0B2"/>
<path d="M166.706 93.7888L159.762 90.5566C159.518 91.704 159.691 92.901 160.251 93.9321C160.81 94.9632 161.719 95.7609 162.814 96.1814C163.228 96.3171 163.665 96.3609 164.097 96.3101C164.529 96.2594 164.945 96.1152 165.315 95.8875C165.685 95.6597 166.002 95.3541 166.242 94.9916C166.482 94.6292 166.641 94.2187 166.706 93.7888Z" fill="#E5BD83"/>
<path d="M162.815 96.1815L137.857 87.6208L137.713 88.2757C146.255 91.1956 154.188 95.661 161.116 101.449C162.124 101.78 163.192 101.886 164.246 101.762C165.3 101.638 166.314 101.286 167.218 100.73C168.122 100.175 168.894 99.4288 169.481 98.5445C170.067 97.6602 170.454 96.6586 170.615 95.6097C170.997 93.8163 170.726 91.9455 169.851 90.3339C168.977 88.7224 167.556 87.4759 165.844 86.8187H165.822C165.737 86.8014 165.429 86.7341 164.92 86.615C164.906 86.6097 164.893 86.6061 164.879 86.6041C163.683 86.4871 162.487 86.8311 161.536 87.5661C160.586 88.3011 159.951 89.3715 159.763 90.5585L166.707 93.7907C166.642 94.2204 166.483 94.6306 166.243 94.9929C166.002 95.3551 165.686 95.6608 165.316 95.8883C164.945 96.1159 164.53 96.26 164.098 96.3106C163.666 96.3613 163.228 96.3172 162.815 96.1815Z" fill="#F7CC7F"/>
<path d="M138.49 88.5506C137.817 86.8079 137.521 84.9427 137.62 83.0775C137.719 81.2123 138.212 79.3892 139.065 77.7275L143.99 79.83C143.135 81.469 142.642 83.2726 142.544 85.1187C142.446 86.9649 142.745 88.8106 143.422 90.531L138.49 88.5506Z" fill="#E5AB07"/>


<mask id="mask2_502_19964" style="mask-type:alpha" maskUnits="userSpaceOnUse" x="241" y="19" width="20" height="20">
<rect x="241" y="19" width="20" height="20" fill="#28A745"/>
</mask>

</g>
<defs>
<filter id="filter0_d_502_19964" x="0" y="0" width="281" height="288" filterUnits="userSpaceOnUse" color-interpolation-filters="sRGB">
<feFlood flood-opacity="0" result="BackgroundImageFix"/>
<feColorMatrix in="SourceAlpha" type="matrix" values="0 0 0 0 0 0 0 0 0 0 0 0 0 0 0 0 0 0 127 0" result="hardAlpha"/>
<feOffset dy="1"/>
<feGaussianBlur stdDeviation="2"/>
<feComposite in2="hardAlpha" operator="out"/>
<feColorMatrix type="matrix" values="0 0 0 0 0 0 0 0 0 0 0 0 0 0 0 0 0 0 0.25 0"/>
<feBlend mode="normal" in2="BackgroundImageFix" result="effect1_dropShadow_502_19964"/>
<feBlend mode="normal" in="SourceGraphic" in2="effect1_dropShadow_502_19964" result="shape"/>
</filter>
<linearGradient id="paint0_linear_502_19964" x1="167.3" y1="31.8749" x2="124.108" y2="88.199" gradientUnits="userSpaceOnUse">
<stop stop-color="#0F973F"/>
<stop offset="0.989" stop-color="#0F6A35"/>
</linearGradient>
<linearGradient id="paint1_linear_502_19964" x1="162.218" y1="30.7925" x2="122.168" y2="114.982" gradientUnits="userSpaceOnUse">
<stop offset="0.16" stop-color="#0FBD4D"/>
<stop offset="0.754" stop-color="#0FA242"/>
</linearGradient>
<linearGradient id="paint2_linear_502_19964" x1="140.499" y1="167.986" x2="140.499" y2="29.0156" gradientUnits="userSpaceOnUse">
<stop offset="0.147" stop-color="#F9EC31" stop-opacity="0.2"/>
<stop offset="0.237" stop-color="#F9EC31" stop-opacity="0.247"/>
<stop offset="0.398" stop-color="#F9EC31" stop-opacity="0.369"/>
<stop offset="0.611" stop-color="#F9EC31" stop-opacity="0.569"/>
<stop offset="0.864" stop-color="#F9EC31" stop-opacity="0.843"/>
<stop offset="1" stop-color="#F9EC31"/>
</linearGradient>
<radialGradient id="paint3_radial_502_19964" cx="0" cy="0" r="1" gradientUnits="userSpaceOnUse" gradientTransform="translate(90.562 162.154) scale(27.2318 17.2591)">
<stop stop-color="#F9EC31"/>
<stop offset="0.337" stop-color="#F9EC31" stop-opacity="0.992"/>
<stop offset="0.474" stop-color="#F9EC31" stop-opacity="0.965"/>
<stop offset="0.575" stop-color="#F9EC31" stop-opacity="0.914"/>
<stop offset="0.658" stop-color="#F9EC31" stop-opacity="0.843"/>
<stop offset="0.73" stop-color="#F9EC31" stop-opacity="0.753"/>
<stop offset="0.795" stop-color="#F9EC31" stop-opacity="0.639"/>
<stop offset="0.854" stop-color="#F9EC31" stop-opacity="0.506"/>
<stop offset="0.907" stop-color="#F9EC31" stop-opacity="0.353"/>
<stop offset="0.952" stop-color="#F9EC31" stop-opacity="0.2"/>
</radialGradient>
<linearGradient id="paint4_linear_502_19964" x1="182.746" y1="73.8153" x2="139.553" y2="130.139" gradientUnits="userSpaceOnUse">
<stop stop-color="#0F973F"/>
<stop offset="0.989" stop-color="#0F6A35"/>
</linearGradient>
<linearGradient id="paint5_linear_502_19964" x1="177.664" y1="72.733" x2="137.614" y2="156.923" gradientUnits="userSpaceOnUse">
<stop offset="0.16" stop-color="#0FBD4D"/>
<stop offset="0.754" stop-color="#0FA242"/>
</linearGradient>
<linearGradient id="paint6_linear_502_19964" x1="140.503" y1="165" x2="140.503" y2="29.0156" gradientUnits="userSpaceOnUse">
<stop offset="0.147" stop-color="#F9EC31" stop-opacity="0.2"/>
<stop offset="0.237" stop-color="#F9EC31" stop-opacity="0.247"/>
<stop offset="0.398" stop-color="#F9EC31" stop-opacity="0.369"/>
<stop offset="0.611" stop-color="#F9EC31" stop-opacity="0.569"/>
<stop offset="0.864" stop-color="#F9EC31" stop-opacity="0.843"/>
<stop offset="1" stop-color="#F9EC31"/>
</linearGradient>
</defs>
</svg>