<svg width="384" height="259" viewBox="0 0 384 259" fill="none" xmlns="http://www.w3.org/2000/svg">
<path d="M68.3042 60.1173C67.2379 60.1173 66.2566 59.9087 65.3603 59.4914C64.464 59.0742 63.6836 58.5256 63.0191 57.8456L64.0622 56.6634C64.6185 57.2506 65.2598 57.722 65.9861 58.0774C66.7279 58.4328 67.5083 58.6105 68.3274 58.6105C69.3782 58.6105 70.1973 58.371 70.7845 57.892C71.3717 57.3974 71.6654 56.7561 71.6654 55.968C71.6654 55.4271 71.5495 54.9944 71.3177 54.6699C71.0858 54.3299 70.7768 54.0517 70.3904 53.8354C70.0041 53.6036 69.5637 53.3795 69.0691 53.1631L66.867 52.1896C66.4034 51.9887 65.9321 51.726 65.453 51.4014C64.9739 51.0769 64.5721 50.6674 64.2476 50.1729C63.9385 49.6784 63.784 49.0525 63.784 48.2953C63.784 47.538 63.9849 46.8658 64.3867 46.2786C64.7885 45.6759 65.3448 45.2045 66.0557 44.8645C66.7666 44.5091 67.5701 44.3314 68.4665 44.3314C69.3782 44.3314 70.2127 44.5091 70.9699 44.8645C71.7426 45.22 72.384 45.6681 72.8939 46.209L71.9667 47.3217C71.5185 46.8581 71.0009 46.4949 70.4136 46.2322C69.8418 45.9695 69.1928 45.8381 68.4665 45.8381C67.5856 45.8381 66.867 46.0545 66.3107 46.4872C65.7698 46.9044 65.4994 47.4762 65.4994 48.2025C65.4994 48.7125 65.6307 49.1297 65.8934 49.4543C66.1561 49.7788 66.4807 50.0492 66.867 50.2656C67.2688 50.4665 67.6629 50.6519 68.0492 50.8219L70.2514 51.7955C70.854 52.0428 71.3872 52.3364 71.8508 52.6764C72.3144 53.0163 72.6853 53.4413 72.9635 53.9513C73.2571 54.4612 73.4039 55.0948 73.4039 55.8521C73.4039 56.6402 73.1953 57.3588 72.778 58.0079C72.3762 58.6569 71.789 59.1746 71.0163 59.5609C70.2591 59.9318 69.355 60.1173 68.3042 60.1173ZM76.4469 59.8391V44.6096H78.5563L81.5466 52.9545C81.7475 53.4799 81.9329 54.0131 82.1029 54.554C82.2883 55.0948 82.4738 55.6357 82.6592 56.1766H82.7519C82.9528 55.6357 83.1383 55.0948 83.3083 54.554C83.4783 54.0131 83.656 53.4799 83.8414 52.9545L86.7853 44.6096H88.9179V59.8391H87.3185V51.0305C87.3185 50.5978 87.3262 50.1265 87.3417 49.6165C87.3726 49.1066 87.4035 48.5966 87.4344 48.0866C87.4653 47.5612 87.4962 47.0744 87.5271 46.6263H87.4344L86.229 50.0801L83.2619 58.2628H82.0565L79.0663 50.0801L77.8609 46.6263H77.7682C77.7991 47.0744 77.83 47.5612 77.8609 48.0866C77.9072 48.5966 77.9381 49.1066 77.9536 49.6165C77.9845 50.1265 78 50.5978 78 51.0305V59.8391H76.4469ZM91.1132 59.8391L96.3288 44.6096H98.2296L103.422 59.8391H101.614L98.8555 51.216C98.5773 50.3506 98.3069 49.5006 98.0442 48.6661C97.7969 47.8162 97.5419 46.9431 97.2792 46.0467H97.1865C96.9547 46.9431 96.7074 47.8162 96.4447 48.6661C96.1974 49.5006 95.927 50.3506 95.6334 51.216L92.8517 59.8391H91.1132ZM93.7558 55.0408V53.6731H100.733V55.0408H93.7558ZM110.289 59.8391V44.6096H112.399L115.389 52.9545C115.59 53.4799 115.775 54.0131 115.945 54.554C116.131 55.0948 116.316 55.6357 116.502 56.1766H116.594C116.795 55.6357 116.981 55.0948 117.151 54.554C117.321 54.0131 117.499 53.4799 117.684 52.9545L120.628 44.6096H122.76V59.8391H121.161V51.0305C121.161 50.5978 121.169 50.1265 121.184 49.6165C121.215 49.1066 121.246 48.5966 121.277 48.0866C121.308 47.5612 121.339 47.0744 121.37 46.6263H121.277L120.072 50.0801L117.104 58.2628H115.899L112.909 50.0801L111.703 46.6263H111.611C111.642 47.0744 111.673 47.5612 111.703 48.0866C111.75 48.5966 111.781 49.1066 111.796 49.6165C111.827 50.1265 111.842 50.5978 111.842 51.0305V59.8391H110.289ZM130.079 60.1173C128.92 60.1173 128.062 59.7464 127.506 59.0046C126.949 58.2628 126.671 57.1734 126.671 55.7362V48.5966H128.34V55.5275C128.34 56.6093 128.518 57.4052 128.873 57.9151C129.229 58.4097 129.8 58.6569 130.589 58.6569C131.176 58.6569 131.709 58.5024 132.188 58.1933C132.667 57.8688 133.185 57.3588 133.741 56.6634V48.5966H135.433V59.8391H134.019L133.88 58.0542H133.811C133.285 58.6724 132.729 59.1746 132.142 59.5609C131.554 59.9318 130.867 60.1173 130.079 60.1173ZM139.352 59.8391V43.2883H141.021V47.878L140.974 50.2424C141.515 49.7015 142.087 49.2456 142.69 48.8748C143.292 48.5039 143.972 48.3184 144.73 48.3184C145.919 48.3184 146.785 48.6893 147.326 49.4311C147.882 50.1729 148.16 51.2623 148.16 52.6995V59.8391H146.468V52.9082C146.468 51.8264 146.29 51.0383 145.935 50.5438C145.595 50.0492 145.031 49.802 144.243 49.802C143.656 49.802 143.122 49.9565 142.643 50.2656C142.164 50.5592 141.623 51.0074 141.021 51.6101V59.8391H139.352ZM154.42 60.1173C153.802 60.1173 153.245 59.9936 152.751 59.7464C152.256 59.4991 151.862 59.1437 151.569 58.6801C151.275 58.201 151.128 57.6215 151.128 56.9416C151.128 55.7207 151.685 54.7858 152.797 54.1367C153.925 53.4722 155.703 53.0086 158.129 52.7459C158.129 52.2359 158.059 51.7491 157.92 51.2855C157.797 50.8219 157.557 50.451 157.202 50.1729C156.862 49.8792 156.367 49.7324 155.718 49.7324C155.038 49.7324 154.404 49.8638 153.817 50.1265C153.245 50.3892 152.743 50.6674 152.31 50.961L151.638 49.802C151.963 49.5856 152.349 49.3616 152.797 49.1297C153.245 48.8979 153.74 48.7048 154.281 48.5502C154.822 48.3957 155.393 48.3184 155.996 48.3184C156.908 48.3184 157.642 48.5116 158.198 48.8979C158.755 49.2843 159.156 49.8174 159.404 50.4974C159.666 51.1774 159.798 51.9732 159.798 52.885V59.8391H158.407L158.268 58.4715H158.198C157.657 58.9196 157.07 59.306 156.437 59.6305C155.803 59.955 155.131 60.1173 154.42 60.1173ZM154.86 58.7496C155.448 58.7496 155.988 58.6183 156.483 58.3556C156.993 58.0774 157.542 57.6833 158.129 57.1734V53.8817C156.8 54.0363 155.749 54.2526 154.976 54.5308C154.204 54.7935 153.647 55.118 153.307 55.5044C152.967 55.8907 152.797 56.3389 152.797 56.8488C152.797 57.5133 152.998 58.0001 153.4 58.3092C153.817 58.6028 154.304 58.7496 154.86 58.7496ZM163.483 59.8391V48.5966H164.874L165.013 50.2656H165.082C165.577 49.7247 166.118 49.2688 166.705 48.8979C167.308 48.5116 167.934 48.3184 168.583 48.3184C169.463 48.3184 170.143 48.5193 170.622 48.9211C171.117 49.3075 171.472 49.8329 171.689 50.4974C172.291 49.8483 172.894 49.3229 173.497 48.9211C174.115 48.5193 174.756 48.3184 175.421 48.3184C176.58 48.3184 177.438 48.6893 177.994 49.4311C178.55 50.1729 178.828 51.2623 178.828 52.6995V59.8391H177.136V52.9082C177.136 51.8264 176.958 51.0383 176.603 50.5438C176.248 50.0492 175.691 49.802 174.934 49.802C174.486 49.802 174.015 49.9565 173.52 50.2656C173.041 50.5592 172.531 51.0074 171.99 51.6101V59.8391H170.298V52.9082C170.298 51.8264 170.12 51.0383 169.765 50.5438C169.425 50.0492 168.876 49.802 168.119 49.802C167.223 49.802 166.234 50.4047 165.152 51.6101V59.8391H163.483ZM182.611 59.8391V48.5966H184.002L184.141 50.2656H184.211C184.705 49.7247 185.246 49.2688 185.833 48.8979C186.436 48.5116 187.062 48.3184 187.711 48.3184C188.592 48.3184 189.272 48.5193 189.751 48.9211C190.245 49.3075 190.601 49.8329 190.817 50.4974C191.42 49.8483 192.023 49.3229 192.625 48.9211C193.243 48.5193 193.885 48.3184 194.549 48.3184C195.708 48.3184 196.566 48.6893 197.122 49.4311C197.679 50.1729 197.957 51.2623 197.957 52.6995V59.8391H196.265V52.9082C196.265 51.8264 196.087 51.0383 195.731 50.5438C195.376 50.0492 194.82 49.802 194.062 49.802C193.614 49.802 193.143 49.9565 192.648 50.2656C192.169 50.5592 191.659 51.0074 191.119 51.6101V59.8391H189.426V52.9082C189.426 51.8264 189.249 51.0383 188.893 50.5438C188.553 50.0492 188.005 49.802 187.247 49.802C186.351 49.802 185.362 50.4047 184.28 51.6101V59.8391H182.611ZM204.29 60.1173C203.671 60.1173 203.115 59.9936 202.621 59.7464C202.126 59.4991 201.732 59.1437 201.438 58.6801C201.145 58.201 200.998 57.6215 200.998 56.9416C200.998 55.7207 201.554 54.7858 202.667 54.1367C203.795 53.4722 205.572 53.0086 207.998 52.7459C207.998 52.2359 207.929 51.7491 207.79 51.2855C207.666 50.8219 207.427 50.451 207.071 50.1729C206.731 49.8792 206.237 49.7324 205.588 49.7324C204.908 49.7324 204.274 49.8638 203.687 50.1265C203.115 50.3892 202.613 50.6674 202.18 50.961L201.508 49.802C201.832 49.5856 202.219 49.3616 202.667 49.1297C203.115 48.8979 203.61 48.7048 204.15 48.5502C204.691 48.3957 205.263 48.3184 205.866 48.3184C206.778 48.3184 207.512 48.5116 208.068 48.8979C208.624 49.2843 209.026 49.8174 209.273 50.4974C209.536 51.1774 209.667 51.9732 209.667 52.885V59.8391H208.277L208.137 58.4715H208.068C207.527 58.9196 206.94 59.306 206.306 59.6305C205.673 59.955 205 60.1173 204.29 60.1173ZM204.73 58.7496C205.317 58.7496 205.858 58.6183 206.353 58.3556C206.863 58.0774 207.411 57.6833 207.998 57.1734V53.8817C206.669 54.0363 205.619 54.2526 204.846 54.5308C204.073 54.7935 203.517 55.118 203.177 55.5044C202.837 55.8907 202.667 56.3389 202.667 56.8488C202.667 57.5133 202.868 58.0001 203.27 58.3092C203.687 58.6028 204.174 58.7496 204.73 58.7496ZM217.131 60.1173C215.725 60.1173 214.604 59.6073 213.77 58.5874C212.935 57.552 212.518 56.0993 212.518 54.2294C212.518 53.0241 212.742 51.9809 213.19 51.1001C213.654 50.2192 214.257 49.5393 214.998 49.0602C215.74 48.5657 216.544 48.3184 217.409 48.3184C218.074 48.3184 218.645 48.4343 219.124 48.6661C219.604 48.8979 220.098 49.2225 220.608 49.6397L220.538 47.6926V43.2883H222.207V59.8391H220.817L220.678 58.4715H220.608C220.175 58.9196 219.658 59.306 219.055 59.6305C218.468 59.955 217.826 60.1173 217.131 60.1173ZM217.502 58.6801C218.043 58.6801 218.56 58.5487 219.055 58.286C219.549 58.0079 220.044 57.6061 220.538 57.0806V50.9842C220.029 50.536 219.542 50.2192 219.078 50.0338C218.615 49.8483 218.143 49.7556 217.664 49.7556C217.031 49.7556 216.451 49.9488 215.926 50.3351C215.416 50.706 215.006 51.2314 214.697 51.9114C214.403 52.5759 214.257 53.3486 214.257 54.2294C214.257 55.6048 214.535 56.6943 215.091 57.4979C215.663 58.286 216.466 58.6801 217.502 58.6801ZM226.143 59.8391V48.5966H227.812V59.8391H226.143ZM227 46.1858C226.676 46.1858 226.398 46.0777 226.166 45.8613C225.949 45.645 225.841 45.3591 225.841 45.0036C225.841 44.6636 225.949 44.3932 226.166 44.1923C226.398 43.976 226.676 43.8678 227 43.8678C227.34 43.8678 227.618 43.976 227.835 44.1923C228.051 44.3932 228.159 44.6636 228.159 45.0036C228.159 45.3591 228.051 45.645 227.835 45.8613C227.618 46.0777 227.34 46.1858 227 46.1858ZM231.78 64.7534C231.532 64.7534 231.301 64.7302 231.084 64.6838C230.868 64.6375 230.675 64.5834 230.505 64.5216L230.829 63.1539C230.953 63.2003 231.092 63.2389 231.247 63.2698C231.417 63.3162 231.571 63.3394 231.71 63.3394C232.359 63.3394 232.9 63.0921 233.333 62.5976C233.766 62.1185 234.098 61.5081 234.33 60.7663L234.608 59.9087L230.064 48.5966H231.803L234.214 55.0408C234.399 55.5198 234.585 56.0375 234.77 56.5938C234.971 57.1347 235.156 57.6679 235.326 58.1933H235.419C235.589 57.6833 235.759 57.1579 235.929 56.617C236.099 56.0607 236.254 55.5353 236.393 55.0408L238.502 48.5966H240.148L235.883 60.8822C235.62 61.5931 235.311 62.2422 234.955 62.8294C234.6 63.4166 234.16 63.8802 233.634 64.2202C233.124 64.5756 232.506 64.7534 231.78 64.7534ZM244.946 60.1173C244.328 60.1173 243.771 59.9936 243.277 59.7464C242.782 59.4991 242.388 59.1437 242.095 58.6801C241.801 58.201 241.654 57.6215 241.654 56.9416C241.654 55.7207 242.211 54.7858 243.323 54.1367C244.451 53.4722 246.229 53.0086 248.655 52.7459C248.655 52.2359 248.585 51.7491 248.446 51.2855C248.322 50.8219 248.083 50.451 247.728 50.1729C247.388 49.8792 246.893 49.7324 246.244 49.7324C245.564 49.7324 244.93 49.8638 244.343 50.1265C243.771 50.3892 243.269 50.6674 242.836 50.961L242.164 49.802C242.489 49.5856 242.875 49.3616 243.323 49.1297C243.771 48.8979 244.266 48.7048 244.807 48.5502C245.348 48.3957 245.919 48.3184 246.522 48.3184C247.434 48.3184 248.168 48.5116 248.724 48.8979C249.281 49.2843 249.682 49.8174 249.93 50.4974C250.192 51.1774 250.324 51.9732 250.324 52.885V59.8391H248.933L248.794 58.4715H248.724C248.183 58.9196 247.596 59.306 246.963 59.6305C246.329 59.955 245.657 60.1173 244.946 60.1173ZM245.386 58.7496C245.974 58.7496 246.514 58.6183 247.009 58.3556C247.519 58.0774 248.067 57.6833 248.655 57.1734V53.8817C247.326 54.0363 246.275 54.2526 245.502 54.5308C244.73 54.7935 244.173 55.118 243.833 55.5044C243.493 55.8907 243.323 56.3389 243.323 56.8488C243.323 57.5133 243.524 58.0001 243.926 58.3092C244.343 58.6028 244.83 58.7496 245.386 58.7496ZM254.009 59.8391V43.2883H255.678V47.878L255.631 50.2424C256.172 49.7015 256.744 49.2456 257.347 48.8748C257.95 48.5039 258.63 48.3184 259.387 48.3184C260.577 48.3184 261.442 48.6893 261.983 49.4311C262.539 50.1729 262.817 51.2623 262.817 52.6995V59.8391H261.125V52.9082C261.125 51.8264 260.948 51.0383 260.592 50.5438C260.252 50.0492 259.688 49.802 258.9 49.802C258.313 49.802 257.78 49.9565 257.3 50.2656C256.821 50.5592 256.281 51.0074 255.678 51.6101V59.8391H254.009ZM276.268 59.8391V49.7324C276.268 49.3461 276.283 48.8825 276.314 48.3416C276.345 47.8007 276.368 47.3371 276.383 46.9508H276.291C276.105 47.2908 275.912 47.623 275.711 47.9475C275.51 48.2721 275.302 48.6198 275.085 48.9907L271.4 54.3222H279.93V55.6666H269.592V54.5772L276.059 45.05H277.867V59.8391H276.268Z" fill="white"/>
<g filter="url(#filter0_d_182_5097)">
<path d="M8.0003 125.917V62.9435H29.0559C33.692 62.9435 37.8773 63.5552 41.6119 64.7786C45.3466 66.002 48.3085 68.0947 50.4978 71.0566C52.7514 73.9542 53.8783 77.9142 53.8783 82.9366C53.8783 87.7658 52.7836 91.7258 50.5944 94.8166C48.4051 97.9073 45.4432 100.225 41.7085 101.771C38.0383 103.252 33.9495 103.992 29.4422 103.992H21.2325V125.917H8.0003ZM21.2325 93.3678H28.5729C32.7583 93.3678 35.849 92.4985 37.8451 90.76C39.8412 88.9571 40.8393 86.3493 40.8393 82.9366C40.8393 79.3951 39.7446 76.9483 37.5554 75.5961C35.4305 74.1795 32.3076 73.4712 28.1866 73.4712H21.2325V93.3678ZM64.0001 125.917V78.1073H74.8176L75.7835 86.5102H76.1698C77.9084 83.3551 79.9688 80.9727 82.3513 79.3629C84.7981 77.7532 87.2449 76.9483 89.6917 76.9483C90.9795 76.9483 92.0742 77.0449 92.9756 77.2381C93.8771 77.3668 94.6498 77.5922 95.2937 77.9142L93.0722 89.4078C92.2352 89.1502 91.4303 88.9571 90.6576 88.8283C89.9493 88.6995 89.08 88.6351 88.0498 88.6351C86.1825 88.6351 84.2508 89.3112 82.2547 90.6634C80.2586 92.0156 78.5844 94.398 77.2323 97.8107V125.917H64.0001ZM122.787 127.076C118.279 127.076 114.19 126.078 110.52 124.082C106.914 122.086 104.049 119.253 101.924 115.582C99.7992 111.848 98.7368 107.34 98.7368 102.06C98.7368 96.9092 99.7992 92.4663 101.924 88.7317C104.113 84.9971 106.914 82.0995 110.327 80.039C113.74 77.9785 117.346 76.9483 121.145 76.9483C125.587 76.9483 129.29 77.9464 132.252 79.9424C135.278 81.9385 137.532 84.6751 139.013 88.1522C140.558 91.5649 141.331 95.4605 141.331 99.839C141.331 100.998 141.266 102.157 141.138 103.316C141.009 104.411 140.88 105.248 140.751 105.827H109.168L109.071 97.038H129.934C129.934 94.0761 129.258 91.6936 127.906 89.8907C126.553 88.0234 124.396 87.0898 121.434 87.0898C119.696 87.0898 118.022 87.5727 116.412 88.5385C114.802 89.5044 113.482 91.1141 112.452 93.3678C111.422 95.5571 110.907 98.4546 110.907 102.06C110.907 105.731 111.55 108.66 112.838 110.85C114.19 112.975 115.897 114.52 117.957 115.486C120.018 116.452 122.207 116.935 124.525 116.935C126.457 116.935 128.26 116.677 129.934 116.162C131.672 115.582 133.411 114.778 135.149 113.747L139.496 121.764C137.113 123.374 134.441 124.661 131.479 125.627C128.582 126.593 125.684 127.076 122.787 127.076ZM165.156 127.076C162.001 127.076 158.749 126.464 155.401 125.241C152.117 123.953 149.284 122.343 146.901 120.412L152.889 112.105C155.079 113.715 157.204 114.971 159.264 115.872C161.324 116.774 163.417 117.224 165.542 117.224C167.796 117.224 169.438 116.806 170.468 115.969C171.498 115.132 172.013 114.005 172.013 112.588C172.013 111.494 171.53 110.56 170.564 109.787C169.663 108.95 168.44 108.242 166.894 107.662C165.413 107.018 163.836 106.375 162.162 105.731C160.165 104.958 158.169 103.992 156.173 102.833C154.242 101.674 152.6 100.193 151.247 98.3902C149.96 96.5873 149.316 94.3658 149.316 91.7258C149.316 87.3473 150.958 83.8059 154.242 81.1015C157.525 78.3327 161.872 76.9483 167.281 76.9483C170.886 76.9483 174.042 77.56 176.746 78.7834C179.45 80.0068 181.801 81.3912 183.797 82.9366L177.905 90.9532C176.166 89.6654 174.46 88.6673 172.786 87.959C171.112 87.1863 169.405 86.8 167.667 86.8C165.671 86.8 164.158 87.2185 163.127 88.0556C162.162 88.8283 161.679 89.8585 161.679 91.1463C161.679 92.1766 162.129 93.0458 163.031 93.7541C163.932 94.4624 165.124 95.1063 166.604 95.6858C168.085 96.2653 169.663 96.8449 171.337 97.4244C173.398 98.197 175.426 99.1629 177.422 100.322C179.418 101.417 181.092 102.898 182.444 104.765C183.797 106.568 184.473 108.918 184.473 111.816C184.473 114.649 183.732 117.224 182.251 119.542C180.77 121.86 178.581 123.696 175.683 125.048C172.85 126.4 169.341 127.076 165.156 127.076ZM211.657 127.076C205.862 127.076 201.709 125.402 199.197 122.054C196.751 118.705 195.527 114.327 195.527 108.918V88.5385H188.959V78.6868L196.3 78.1073L197.845 65.3581H208.759V78.1073H220.446V88.5385H208.759V108.821C208.759 111.526 209.307 113.522 210.401 114.81C211.56 116.033 213.138 116.645 215.134 116.645C215.971 116.645 216.808 116.548 217.645 116.355C218.482 116.162 219.223 115.937 219.867 115.679L221.992 125.337C220.704 125.724 219.191 126.11 217.452 126.497C215.714 126.883 213.782 127.076 211.657 127.076ZM241.886 127.076C239.053 127.076 236.574 126.464 234.449 125.241C232.324 123.953 230.65 122.247 229.426 120.122C228.267 117.933 227.688 115.486 227.688 112.781C227.688 107.759 229.845 103.831 234.159 100.998C238.473 98.1649 245.427 96.2331 255.021 95.2029C254.957 93.7219 254.635 92.4019 254.056 91.2429C253.54 90.0839 252.703 89.1824 251.544 88.5385C250.45 87.8946 248.969 87.5727 247.101 87.5727C244.977 87.5727 242.852 87.9912 240.727 88.8283C238.666 89.601 236.509 90.6634 234.256 92.0156L229.426 83.2263C231.358 82.0673 233.419 81.0049 235.608 80.039C237.797 79.0732 240.051 78.3327 242.369 77.8176C244.687 77.2381 247.101 76.9483 249.613 76.9483C253.669 76.9483 257.082 77.7532 259.851 79.3629C262.619 80.9727 264.712 83.3551 266.129 86.5102C267.545 89.601 268.254 93.5288 268.254 98.2936V125.917H257.436L256.47 120.895H256.084C254.088 122.697 251.899 124.178 249.516 125.337C247.198 126.497 244.655 127.076 241.886 127.076ZM246.329 116.838C248.067 116.838 249.58 116.452 250.868 115.679C252.22 114.842 253.605 113.747 255.021 112.395V103.316C251.351 103.767 248.454 104.411 246.329 105.248C244.204 106.02 242.691 106.986 241.789 108.145C240.888 109.24 240.437 110.431 240.437 111.719C240.437 113.458 240.984 114.745 242.079 115.582C243.174 116.419 244.59 116.838 246.329 116.838ZM294.565 127.076C291.41 127.076 288.158 126.464 284.81 125.241C281.526 123.953 278.693 122.343 276.31 120.412L282.298 112.105C284.488 113.715 286.613 114.971 288.673 115.872C290.734 116.774 292.826 117.224 294.951 117.224C297.205 117.224 298.847 116.806 299.877 115.969C300.907 115.132 301.422 114.005 301.422 112.588C301.422 111.494 300.939 110.56 299.973 109.787C299.072 108.95 297.849 108.242 296.303 107.662C294.822 107.018 293.245 106.375 291.571 105.731C289.574 104.958 287.578 103.992 285.582 102.833C283.651 101.674 282.009 100.193 280.656 98.3902C279.369 96.5873 278.725 94.3658 278.725 91.7258C278.725 87.3473 280.367 83.8059 283.651 81.1015C286.934 78.3327 291.281 76.9483 296.69 76.9483C300.295 76.9483 303.451 77.56 306.155 78.7834C308.859 80.0068 311.21 81.3912 313.206 82.9366L307.314 90.9532C305.575 89.6654 303.869 88.6673 302.195 87.959C300.521 87.1863 298.814 86.8 297.076 86.8C295.08 86.8 293.567 87.2185 292.536 88.0556C291.571 88.8283 291.088 89.8585 291.088 91.1463C291.088 92.1766 291.538 93.0458 292.44 93.7541C293.341 94.4624 294.533 95.1063 296.013 95.6858C297.494 96.2653 299.072 96.8449 300.746 97.4244C302.807 98.197 304.835 99.1629 306.831 100.322C308.827 101.417 310.501 102.898 311.853 104.765C313.206 106.568 313.882 108.918 313.882 111.816C313.882 114.649 313.141 117.224 311.66 119.542C310.179 121.86 307.99 123.696 305.092 125.048C302.259 126.4 298.75 127.076 294.565 127.076Z" fill="white"/>
</g>
<path d="M8.0003 129.068V192.042H29.0559C33.692 192.042 37.8773 191.43 41.6119 190.207C45.3466 188.983 48.3085 186.89 50.4978 183.928C52.7514 181.031 53.8783 177.071 53.8783 172.049C53.8783 167.219 52.7836 163.259 50.5944 160.169C48.4051 157.078 45.4432 154.76 41.7085 153.214C38.0383 151.733 33.9495 150.993 29.4422 150.993H21.2325V129.068H8.0003ZM21.2325 161.617H28.5729C32.7583 161.617 35.849 162.487 37.8451 164.225C39.8412 166.028 40.8393 168.636 40.8393 172.049C40.8393 175.59 39.7446 178.037 37.5554 179.389C35.4305 180.806 32.3076 181.514 28.1866 181.514H21.2325V161.617ZM64.0001 129.068V176.878H74.8176L75.7835 168.475H76.1698C77.9084 171.63 79.9688 174.012 82.3513 175.622C84.7981 177.232 87.2449 178.037 89.6917 178.037C90.9795 178.037 92.0742 177.94 92.9756 177.747C93.8771 177.618 94.6498 177.393 95.2937 177.071L93.0722 165.577C92.2352 165.835 91.4303 166.028 90.6576 166.157C89.9493 166.286 89.08 166.35 88.0498 166.35C86.1825 166.35 84.2508 165.674 82.2547 164.322C80.2586 162.97 78.5844 160.587 77.2323 157.174V129.068H64.0001ZM122.787 127.909C118.279 127.909 114.19 128.907 110.52 130.903C106.914 132.899 104.049 135.732 101.924 139.403C99.7992 143.137 98.7368 147.645 98.7368 152.925C98.7368 158.076 99.7992 162.519 101.924 166.253C104.113 169.988 106.914 172.886 110.327 174.946C113.74 177.007 117.346 178.037 121.145 178.037C125.587 178.037 129.29 177.039 132.252 175.043C135.278 173.047 137.532 170.31 139.013 166.833C140.558 163.42 141.331 159.525 141.331 155.146C141.331 153.987 141.266 152.828 141.138 151.669C141.009 150.574 140.88 149.737 140.751 149.158H109.168L109.071 157.947H129.934C129.934 160.909 129.258 163.291 127.906 165.094C126.553 166.962 124.396 167.895 121.434 167.895C119.696 167.895 118.022 167.412 116.412 166.447C114.802 165.481 113.482 163.871 112.452 161.617C111.422 159.428 110.907 156.531 110.907 152.925C110.907 149.254 111.55 146.325 112.838 144.135C114.19 142.011 115.897 140.465 117.957 139.499C120.018 138.533 122.207 138.051 124.525 138.051C126.457 138.051 128.26 138.308 129.934 138.823C131.672 139.403 133.411 140.208 135.149 141.238L139.496 133.221C137.113 131.612 134.441 130.324 131.479 129.358C128.582 128.392 125.684 127.909 122.787 127.909ZM165.156 127.909C162.001 127.909 158.749 128.521 155.401 129.744C152.117 131.032 149.284 132.642 146.901 134.573L152.889 142.88C155.079 141.27 157.204 140.014 159.264 139.113C161.324 138.212 163.417 137.761 165.542 137.761C167.796 137.761 169.438 138.179 170.468 139.016C171.498 139.853 172.013 140.98 172.013 142.397C172.013 143.492 171.53 144.425 170.564 145.198C169.663 146.035 168.44 146.743 166.894 147.323C165.413 147.967 163.836 148.611 162.162 149.254C160.165 150.027 158.169 150.993 156.173 152.152C154.242 153.311 152.6 154.792 151.247 156.595C149.96 158.398 149.316 160.619 149.316 163.259C149.316 167.638 150.958 171.179 154.242 173.884C157.525 176.652 161.872 178.037 167.281 178.037C170.886 178.037 174.042 177.425 176.746 176.202C179.45 174.978 181.801 173.594 183.797 172.049L177.905 164.032C176.166 165.32 174.46 166.318 172.786 167.026C171.112 167.799 169.405 168.185 167.667 168.185C165.671 168.185 164.158 167.767 163.127 166.93C162.162 166.157 161.679 165.127 161.679 163.839C161.679 162.809 162.129 161.939 163.031 161.231C163.932 160.523 165.124 159.879 166.604 159.299C168.085 158.72 169.663 158.14 171.337 157.561C173.398 156.788 175.426 155.822 177.422 154.663C179.418 153.569 181.092 152.088 182.444 150.22C183.797 148.417 184.473 146.067 184.473 143.17C184.473 140.336 183.732 137.761 182.251 135.443C180.77 133.125 178.581 131.29 175.683 129.937C172.85 128.585 169.341 127.909 165.156 127.909ZM211.657 127.909C205.862 127.909 201.709 129.583 199.197 132.932C196.751 136.28 195.527 140.658 195.527 146.067V166.447H188.959V176.298L196.3 176.878L197.845 189.627H208.759V176.878H220.446V166.447H208.759V146.164C208.759 143.459 209.307 141.463 210.401 140.175C211.56 138.952 213.138 138.34 215.134 138.34C215.971 138.34 216.808 138.437 217.645 138.63C218.482 138.823 219.223 139.049 219.867 139.306L221.992 129.648C220.704 129.261 219.191 128.875 217.452 128.489C215.714 128.102 213.782 127.909 211.657 127.909ZM241.886 127.909C239.053 127.909 236.574 128.521 234.449 129.744C232.324 131.032 230.65 132.738 229.426 134.863C228.267 137.052 227.688 139.499 227.688 142.204C227.688 147.226 229.845 151.154 234.159 153.987C238.473 156.82 245.427 158.752 255.021 159.782C254.957 161.263 254.635 162.583 254.056 163.742C253.54 164.901 252.703 165.803 251.544 166.447C250.45 167.09 248.969 167.412 247.101 167.412C244.977 167.412 242.852 166.994 240.727 166.157C238.666 165.384 236.509 164.322 234.256 162.97L229.426 171.759C231.358 172.918 233.419 173.98 235.608 174.946C237.797 175.912 240.051 176.652 242.369 177.168C244.687 177.747 247.101 178.037 249.613 178.037C253.669 178.037 257.082 177.232 259.851 175.622C262.619 174.012 264.712 171.63 266.129 168.475C267.545 165.384 268.254 161.456 268.254 156.691V129.068H257.436L256.47 134.091H256.084C254.088 132.288 251.899 130.807 249.516 129.648C247.198 128.489 244.655 127.909 241.886 127.909ZM246.329 138.147C248.067 138.147 249.58 138.533 250.868 139.306C252.22 140.143 253.605 141.238 255.021 142.59V151.669C251.351 151.218 248.454 150.574 246.329 149.737C244.204 148.965 242.691 147.999 241.789 146.84C240.888 145.745 240.437 144.554 240.437 143.266C240.437 141.528 240.984 140.24 242.079 139.403C243.174 138.566 244.59 138.147 246.329 138.147ZM294.565 127.909C291.41 127.909 288.158 128.521 284.81 129.744C281.526 131.032 278.693 132.642 276.31 134.573L282.298 142.88C284.488 141.27 286.613 140.014 288.673 139.113C290.734 138.212 292.826 137.761 294.951 137.761C297.205 137.761 298.847 138.179 299.877 139.016C300.907 139.853 301.422 140.98 301.422 142.397C301.422 143.492 300.939 144.425 299.973 145.198C299.072 146.035 297.849 146.743 296.303 147.323C294.822 147.967 293.245 148.611 291.571 149.254C289.574 150.027 287.578 150.993 285.582 152.152C283.651 153.311 282.009 154.792 280.656 156.595C279.369 158.398 278.725 160.619 278.725 163.259C278.725 167.638 280.367 171.179 283.651 173.884C286.934 176.652 291.281 178.037 296.69 178.037C300.295 178.037 303.451 177.425 306.155 176.202C308.859 174.978 311.21 173.594 313.206 172.049L307.314 164.032C305.575 165.32 303.869 166.318 302.195 167.026C300.521 167.799 298.814 168.185 297.076 168.185C295.08 168.185 293.567 167.767 292.536 166.93C291.571 166.157 291.088 165.127 291.088 163.839C291.088 162.809 291.538 161.939 292.44 161.231C293.341 160.523 294.533 159.879 296.013 159.299C297.494 158.72 299.072 158.14 300.746 157.561C302.807 156.788 304.835 155.822 306.831 154.663C308.827 153.569 310.501 152.088 311.853 150.22C313.206 148.417 313.882 146.067 313.882 143.17C313.882 140.336 313.141 137.761 311.66 135.443C310.179 133.125 307.99 131.29 305.092 129.937C302.259 128.585 298.75 127.909 294.565 127.909Z" fill="url(#paint0_linear_182_5097)" fill-opacity="0.95"/>
<g filter="url(#filter1_d_182_5097)">
<path d="M317.636 126.527C318.179 125.093 318.689 123.643 319.27 122.226C321.832 115.976 324.418 109.737 326.983 103.49C327.695 101.754 328.284 99.9584 329.068 98.2597C329.682 96.9287 330.433 95.6433 331.285 94.4662C331.562 94.0815 332.337 94.0444 332.901 93.9389C333.606 93.805 333.998 93.5456 333.754 92.7049C332.754 89.242 333.228 85.7421 333.606 82.2621C333.888 79.6742 334.261 77.0921 334.674 74.5213C334.795 73.766 335.214 73.0677 335.474 72.3324C335.636 71.8764 335.8 71.4147 335.883 70.9415C335.938 70.628 335.732 70.2433 335.836 69.9668C336.617 67.8634 335.422 66.7975 333.995 65.6546C331.578 63.7194 329.287 61.6189 326.947 59.5839C326.577 59.2619 326.227 58.9142 325.646 58.3698C325.558 59.279 325.55 59.8775 325.435 60.4532C325.229 61.4821 324.717 62.2032 323.566 62.0863C322.418 61.9723 322.325 61.1144 322.445 60.2138C322.588 59.1536 322.056 58.6263 321.22 58.2871C318.853 57.3238 316.45 56.4488 314.124 55.3914C309.016 53.0743 305.923 49.087 304.802 43.3355C304.232 40.4028 304.07 37.5043 304.385 34.5687C304.596 32.5821 304.846 32.4083 307.008 31.9409C308.254 31.6701 309.504 31.4108 310.753 31.1428C311.778 30.9205 312.603 31.0516 313.145 32.1774C313.389 32.6847 313.885 33.1465 314.378 33.403C314.71 33.5768 315.294 33.4657 315.647 33.2605C315.817 33.1607 315.801 32.5223 315.707 32.1774C315.455 31.2511 315.861 30.7609 316.587 30.3505C320.467 28.1474 324.498 26.3661 328.737 25.0094C335.694 22.7835 342.801 21.9883 350.038 22.0311C351.425 22.0396 352.638 22.0596 352.532 24.0604C352.515 24.3881 353.038 25.0322 353.293 25.0237C353.693 25.0066 354.102 24.5905 354.452 24.2741C354.598 24.143 354.639 23.8409 354.663 23.61C354.891 21.5608 356.255 20.9908 357.96 20.7457C359.174 20.5718 360.357 20.1301 361.571 20.0303C362.119 19.9847 362.96 20.3153 363.24 20.7628C365.972 25.1519 367.594 29.943 367.207 35.227C366.901 39.4281 364.761 42.7912 362.031 45.7553C360.618 47.2915 359.094 48.7222 357.666 50.247C357.176 50.7686 356.658 51.3272 357.157 52.2335C357.62 53.0772 357.929 54.0633 356.891 54.7416C355.866 55.4114 355.195 54.659 354.545 53.9578C354.452 53.8581 354.34 53.7754 354.047 53.5132C353.274 55.2774 352.537 56.9704 351.789 58.6548C351.126 60.1482 350.372 61.6075 349.819 63.1437C349.622 63.6938 349.854 64.4405 349.983 65.0789C350.044 65.381 350.318 65.6347 350.496 65.9111C351.414 67.3447 351.367 67.6212 349.701 69.9212C351.104 70.2433 352.411 70.5938 353.734 70.8332C355.622 71.1753 357.609 72.8511 357.28 74.5127C356.932 76.2769 357.08 77.6564 358.077 79.0244C358.102 79.0586 358.102 79.1156 358.108 79.1612C358.365 81.2731 358.593 83.3908 358.897 85.4941C358.965 85.9672 359.234 86.4518 359.521 86.8422C360.294 87.8882 360.379 88.8629 359.543 89.9289C359.124 90.4647 358.839 91.1117 358.478 91.733C358.664 91.8812 358.757 92.0151 358.867 92.0351C361.379 92.4826 361.889 93.0811 361.867 95.7744C361.867 96.0765 361.505 96.5354 361.212 96.6465C358.62 97.6469 356.014 98.6188 353.389 99.5251C352.359 99.8814 351.263 100.032 350.208 100.323C349.474 100.526 348.819 102.523 349.441 103.096C351.063 104.593 350.381 106.348 350.079 107.981C349.263 112.396 348.309 116.782 347.383 121.172C347.005 122.964 346.558 124.74 346.144 126.524H317.636V126.527ZM321.67 55.286C321.807 55.1264 321.944 54.9639 322.081 54.8043C321.903 54.4623 321.719 54.126 321.547 53.7811C320.985 52.6553 320.212 51.5837 319.905 50.3867C318.878 46.3737 317.952 42.3295 317.132 38.2652C316.886 37.0454 316.395 36.6663 315.318 36.7746C313.663 36.9428 312.274 36.7404 311.153 35.0902C310.805 34.5801 309.213 34.7824 308.265 35.0019C307.821 35.1045 307.241 36.0279 307.257 36.5609C307.32 38.5844 307.512 40.6137 307.821 42.6145C308.367 46.1172 309.849 49.1896 312.869 50.9766C315.68 52.6382 318.727 53.8666 321.67 55.2888V55.286ZM356.305 46.6245C356.853 46.3338 357.118 46.2654 357.286 46.0916C358.598 44.7178 360.042 43.441 361.149 41.9019C362.19 40.4541 363.116 38.8096 363.665 37.1052C365.114 32.6021 363.643 28.4752 361.777 24.4366C361.352 23.516 360.864 23.2395 359.96 23.6385C359.639 23.7811 359.157 23.6157 358.899 23.8067C358.36 24.2086 357.554 24.7187 357.505 25.2488C357.379 26.6397 356.721 27.2183 355.537 27.5973C354.367 27.9707 353.384 28.5949 353.871 30.2337C354.233 31.4478 354.463 32.7075 354.729 33.9502C355.592 38.0144 357.327 41.9475 356.302 46.6217L356.305 46.6245Z" fill="white"/>
</g>
<g filter="url(#filter2_d_182_5097)">
<ellipse cx="1.68772" cy="4.47214" rx="1.68772" ry="4.47214" transform="matrix(0.853691 0.520779 -0.491487 0.870885 354.197 2.07935)" fill="white"/>
</g>
<g filter="url(#filter3_d_182_5097)">
<ellipse cx="1.40093" cy="3.77811" rx="1.40093" ry="3.77811" transform="matrix(0.983666 -0.180005 0.166916 0.985971 338.372 0.504639)" fill="white"/>
</g>
<g filter="url(#filter4_d_182_5097)">
<ellipse cx="1.41367" cy="3.74589" rx="1.41367" ry="3.74589" transform="matrix(0.853553 0.521005 -0.491709 0.87076 372.699 46.4236)" fill="white"/>
</g>
<g filter="url(#filter5_d_182_5097)">
<ellipse cx="1.44066" cy="3.67573" rx="1.44066" ry="3.67573" transform="matrix(0.492963 0.87005 -0.852773 0.522282 376.24 30.8643)" fill="white"/>
</g>
<g filter="url(#filter6_d_182_5097)">
<ellipse cx="1.43657" cy="3.68652" rx="1.43657" ry="3.68652" transform="matrix(0.560987 -0.827824 0.80672 0.590934 361.137 60.6357)" fill="white"/>
</g>
<g filter="url(#filter7_d_182_5097)">
<ellipse cx="1.40386" cy="3.77074" rx="1.40386" ry="3.77074" transform="matrix(0.954975 -0.296686 0.276229 0.961092 374.269 61.8208)" fill="white"/>
</g>
<g filter="url(#filter8_d_182_5097)">
<ellipse cx="1.43997" cy="3.67754" rx="1.43997" ry="3.67754" transform="matrix(0.504938 -0.863155 0.845198 0.534453 303.276 58.9224)" fill="white"/>
</g>
<g filter="url(#filter9_d_182_5097)">
<ellipse cx="1.44911" cy="3.65321" rx="1.44911" ry="3.65321" transform="matrix(-0.310634 -0.950529 0.942898 -0.333081 310.38 72.6897)" fill="white"/>
</g>
<g filter="url(#filter10_d_182_5097)">
<path d="M318.603 128.458C319.146 129.848 319.655 131.254 320.236 132.628C322.798 138.687 325.385 144.735 327.95 150.792C328.662 152.475 329.251 154.215 330.035 155.862C330.649 157.152 331.399 158.399 332.252 159.54C332.528 159.913 333.304 159.949 333.868 160.051C334.572 160.181 334.964 160.432 334.72 161.247C333.72 164.604 334.194 167.997 334.572 171.371C334.855 173.88 335.227 176.383 335.641 178.876C335.762 179.608 336.181 180.285 336.441 180.998C336.603 181.44 336.767 181.887 336.849 182.346C336.904 182.65 336.699 183.023 336.803 183.291C337.584 185.33 336.389 186.363 334.962 187.471C332.545 189.348 330.254 191.384 327.914 193.357C327.544 193.669 327.193 194.006 326.613 194.534C326.525 193.652 326.517 193.072 326.402 192.514C326.196 191.517 325.684 190.818 324.533 190.931C323.385 191.041 323.292 191.873 323.412 192.746C323.555 193.774 323.023 194.285 322.187 194.614C319.82 195.548 317.417 196.396 315.09 197.421C309.983 199.668 306.889 203.533 305.769 209.109C305.199 211.952 305.037 214.762 305.352 217.608C305.563 219.534 305.812 219.703 307.974 220.156C309.221 220.418 310.471 220.67 311.72 220.929C312.745 221.145 313.57 221.018 314.112 219.926C314.356 219.434 314.852 218.987 315.345 218.738C315.677 218.57 316.26 218.677 316.614 218.876C316.784 218.973 316.767 219.592 316.674 219.926C316.422 220.824 316.828 221.3 317.554 221.697C321.434 223.833 325.464 225.56 329.703 226.875C336.66 229.033 343.768 229.804 351.005 229.763C352.391 229.755 353.605 229.735 353.498 227.796C353.482 227.478 354.005 226.853 354.26 226.862C354.66 226.878 355.068 227.282 355.419 227.588C355.564 227.715 355.605 228.008 355.63 228.232C355.858 230.219 357.222 230.771 358.926 231.009C360.14 231.177 361.324 231.606 362.538 231.702C363.086 231.747 363.927 231.426 364.207 230.992C366.938 226.737 368.561 222.093 368.174 216.97C367.867 212.897 365.727 209.637 362.998 206.763C361.584 205.274 360.061 203.887 358.633 202.409C358.143 201.903 357.625 201.361 358.124 200.483C358.587 199.665 358.896 198.709 357.858 198.051C356.833 197.402 356.162 198.131 355.512 198.811C355.419 198.908 355.307 198.988 355.014 199.242C354.241 197.532 353.504 195.89 352.756 194.258C352.093 192.81 351.339 191.395 350.786 189.906C350.588 189.372 350.821 188.649 350.95 188.03C351.01 187.737 351.284 187.491 351.462 187.223C352.38 185.833 352.334 185.565 350.668 183.335C352.071 183.023 353.378 182.683 354.701 182.451C356.589 182.119 358.576 180.495 358.247 178.884C357.899 177.174 358.047 175.836 359.044 174.51C359.069 174.477 359.069 174.422 359.074 174.377C359.332 172.33 359.559 170.277 359.864 168.238C359.932 167.779 360.201 167.309 360.488 166.931C361.261 165.917 361.346 164.972 360.51 163.939C360.091 163.419 359.806 162.792 359.444 162.189C359.631 162.046 359.724 161.916 359.833 161.897C362.346 161.463 362.856 160.883 362.834 158.271C362.834 157.979 362.472 157.534 362.179 157.426C359.587 156.456 356.981 155.514 354.356 154.635C353.326 154.29 352.23 154.143 351.175 153.862C350.44 153.665 349.785 151.729 350.407 151.173C352.03 149.723 351.347 148.021 351.046 146.437C350.229 142.157 349.276 137.905 348.35 133.65C347.972 131.912 347.525 130.191 347.111 128.461H318.603V128.458ZM322.637 197.523C322.774 197.678 322.911 197.836 323.048 197.99C322.87 198.322 322.686 198.648 322.513 198.982C321.952 200.074 321.179 201.113 320.872 202.273C319.844 206.164 318.918 210.084 318.099 214.024C317.852 215.207 317.362 215.575 316.285 215.47C314.63 215.306 313.241 215.503 312.12 217.102C311.772 217.597 310.18 217.401 309.232 217.188C308.788 217.089 308.207 216.193 308.224 215.677C308.287 213.715 308.479 211.748 308.788 209.808C309.333 206.412 310.816 203.434 313.835 201.701C316.647 200.09 319.694 198.899 322.637 197.521V197.523ZM357.271 205.92C357.819 206.202 358.085 206.269 358.252 206.437C359.565 207.769 361.009 209.007 362.116 210.499C363.157 211.902 364.083 213.497 364.631 215.149C366.081 219.515 364.609 223.516 362.743 227.431C362.319 228.323 361.831 228.591 360.927 228.204C360.606 228.066 360.124 228.227 359.866 228.041C359.326 227.652 358.521 227.157 358.472 226.643C358.346 225.295 357.688 224.734 356.504 224.367C355.334 224.005 354.35 223.399 354.838 221.811C355.2 220.634 355.43 219.412 355.696 218.208C356.559 214.268 358.293 210.455 357.269 205.923L357.271 205.92Z" fill="url(#paint1_linear_182_5097)" shape-rendering="crispEdges"/>
</g>
<g filter="url(#filter11_d_182_5097)">
<ellipse cx="1.6739" cy="4.36895" rx="1.6739" ry="4.36895" transform="matrix(0.86074 -0.509045 -0.503096 -0.864231 355.164 249.105)" fill="url(#paint2_linear_182_5097)" shape-rendering="crispEdges"/>
</g>
<g filter="url(#filter12_d_182_5097)">
<ellipse cx="1.39957" cy="3.66599" rx="1.39957" ry="3.66599" transform="matrix(0.984626 0.174678 0.172021 -0.985093 339.339 250.632)" fill="url(#paint3_linear_182_5097)" shape-rendering="crispEdges"/>
</g>
<g filter="url(#filter13_d_182_5097)">
<ellipse cx="1.40208" cy="3.65948" rx="1.40208" ry="3.65948" transform="matrix(0.860607 -0.509269 -0.503319 -0.864101 373.666 206.115)" fill="url(#paint4_linear_182_5097)" shape-rendering="crispEdges"/>
</g>
<g filter="url(#filter14_d_182_5097)">
<ellipse cx="1.40748" cy="3.64546" rx="1.40748" ry="3.64546" transform="matrix(0.504584 -0.863363 -0.859855 -0.510538 377.207 221.199)" fill="url(#paint5_linear_182_5097)" shape-rendering="crispEdges"/>
</g>
<g filter="url(#filter15_d_182_5097)">
<ellipse cx="1.40666" cy="3.6476" rx="1.40666" ry="3.6476" transform="matrix(0.572918 0.819612 0.815327 -0.579 362.104 192.337)" fill="url(#paint6_linear_182_5097)" shape-rendering="crispEdges"/>
</g>
<g filter="url(#filter16_d_182_5097)">
<ellipse cx="1.40014" cy="3.6645" rx="1.40014" ry="3.6645" transform="matrix(0.957513 0.28839 0.284237 -0.958754 375.235 191.188)" fill="url(#paint7_linear_182_5097)" shape-rendering="crispEdges"/>
</g>
<g filter="url(#filter17_d_182_5097)">
<ellipse cx="1.40734" cy="3.64581" rx="1.40734" ry="3.64581" transform="matrix(0.516646 0.856199 0.852553 -0.52264 304.243 193.998)" fill="url(#paint8_linear_182_5097)" shape-rendering="crispEdges"/>
</g>
<g filter="url(#filter18_d_182_5097)">
<ellipse cx="1.40919" cy="3.641" rx="1.40919" ry="3.641" transform="matrix(-0.319435 0.947608 0.94606 0.323992 311.347 180.651)" fill="url(#paint9_linear_182_5097)" shape-rendering="crispEdges"/>
</g>
<defs>
<filter id="filter0_d_182_5097" x="4.13659" y="62.9434" width="313.609" height="71.8594" filterUnits="userSpaceOnUse" color-interpolation-filters="sRGB">
<feFlood flood-opacity="0" result="BackgroundImageFix"/>
<feColorMatrix in="SourceAlpha" type="matrix" values="0 0 0 0 0 0 0 0 0 0 0 0 0 0 0 0 0 0 127 0" result="hardAlpha"/>
<feOffset dy="3.86341"/>
<feGaussianBlur stdDeviation="1.9317"/>
<feComposite in2="hardAlpha" operator="out"/>
<feColorMatrix type="matrix" values="0 0 0 0 0 0 0 0 0 0 0 0 0 0 0 0 0 0 0.25 0"/>
<feBlend mode="normal" in2="BackgroundImageFix" result="effect1_dropShadow_182_5097"/>
<feBlend mode="normal" in="SourceGraphic" in2="effect1_dropShadow_182_5097" result="shape"/>
</filter>
<filter id="filter1_d_182_5097" x="300.363" y="20.0261" width="70.7639" height="114.228" filterUnits="userSpaceOnUse" color-interpolation-filters="sRGB">
<feFlood flood-opacity="0" result="BackgroundImageFix"/>
<feColorMatrix in="SourceAlpha" type="matrix" values="0 0 0 0 0 0 0 0 0 0 0 0 0 0 0 0 0 0 127 0" result="hardAlpha"/>
<feOffset dy="3.86341"/>
<feGaussianBlur stdDeviation="1.9317"/>
<feComposite in2="hardAlpha" operator="out"/>
<feColorMatrix type="matrix" values="0 0 0 0 0 0 0 0 0 0 0 0 0 0 0 0 0 0 0.25 0"/>
<feBlend mode="normal" in2="BackgroundImageFix" result="effect1_dropShadow_182_5097"/>
<feBlend mode="normal" in="SourceGraphic" in2="effect1_dropShadow_182_5097" result="shape"/>
</filter>
<filter id="filter2_d_182_5097" x="346.948" y="2.85938" width="12.9836" height="15.7139" filterUnits="userSpaceOnUse" color-interpolation-filters="sRGB">
<feFlood flood-opacity="0" result="BackgroundImageFix"/>
<feColorMatrix in="SourceAlpha" type="matrix" values="0 0 0 0 0 0 0 0 0 0 0 0 0 0 0 0 0 0 127 0" result="hardAlpha"/>
<feOffset dy="3.86341"/>
<feGaussianBlur stdDeviation="1.9317"/>
<feComposite in2="hardAlpha" operator="out"/>
<feColorMatrix type="matrix" values="0 0 0 0 0 0 0 0 0 0 0 0 0 0 0 0 0 0 0.25 0"/>
<feBlend mode="normal" in2="BackgroundImageFix" result="effect1_dropShadow_182_5097"/>
<feBlend mode="normal" in="SourceGraphic" in2="effect1_dropShadow_182_5097" result="shape"/>
</filter>
<filter id="filter3_d_182_5097" x="335.002" y="0.243896" width="10.7581" height="15.1943" filterUnits="userSpaceOnUse" color-interpolation-filters="sRGB">
<feFlood flood-opacity="0" result="BackgroundImageFix"/>
<feColorMatrix in="SourceAlpha" type="matrix" values="0 0 0 0 0 0 0 0 0 0 0 0 0 0 0 0 0 0 127 0" result="hardAlpha"/>
<feOffset dy="3.86341"/>
<feGaussianBlur stdDeviation="1.9317"/>
<feComposite in2="hardAlpha" operator="out"/>
<feColorMatrix type="matrix" values="0 0 0 0 0 0 0 0 0 0 0 0 0 0 0 0 0 0 0.25 0"/>
<feBlend mode="normal" in2="BackgroundImageFix" result="effect1_dropShadow_182_5097"/>
<feBlend mode="normal" in="SourceGraphic" in2="effect1_dropShadow_182_5097" result="shape"/>
</filter>
<filter id="filter4_d_182_5097" x="365.998" y="47.0771" width="12.1321" height="14.4163" filterUnits="userSpaceOnUse" color-interpolation-filters="sRGB">
<feFlood flood-opacity="0" result="BackgroundImageFix"/>
<feColorMatrix in="SourceAlpha" type="matrix" values="0 0 0 0 0 0 0 0 0 0 0 0 0 0 0 0 0 0 127 0" result="hardAlpha"/>
<feOffset dy="3.86341"/>
<feGaussianBlur stdDeviation="1.9317"/>
<feComposite in2="hardAlpha" operator="out"/>
<feColorMatrix type="matrix" values="0 0 0 0 0 0 0 0 0 0 0 0 0 0 0 0 0 0 0.25 0"/>
<feBlend mode="normal" in2="BackgroundImageFix" result="effect1_dropShadow_182_5097"/>
<feBlend mode="normal" in="SourceGraphic" in2="effect1_dropShadow_182_5097" result="shape"/>
</filter>
<filter id="filter5_d_182_5097" x="366.738" y="31.7444" width="14.1555" height="12.313" filterUnits="userSpaceOnUse" color-interpolation-filters="sRGB">
<feFlood flood-opacity="0" result="BackgroundImageFix"/>
<feColorMatrix in="SourceAlpha" type="matrix" values="0 0 0 0 0 0 0 0 0 0 0 0 0 0 0 0 0 0 127 0" result="hardAlpha"/>
<feOffset dy="3.86341"/>
<feGaussianBlur stdDeviation="1.9317"/>
<feComposite in2="hardAlpha" operator="out"/>
<feColorMatrix type="matrix" values="0 0 0 0 0 0 0 0 0 0 0 0 0 0 0 0 0 0 0.25 0"/>
<feBlend mode="normal" in2="BackgroundImageFix" result="effect1_dropShadow_182_5097"/>
<feBlend mode="normal" in="SourceGraphic" in2="effect1_dropShadow_182_5097" result="shape"/>
</filter>
<filter id="filter6_d_182_5097" x="357.972" y="59.1426" width="13.8909" height="12.6917" filterUnits="userSpaceOnUse" color-interpolation-filters="sRGB">
<feFlood flood-opacity="0" result="BackgroundImageFix"/>
<feColorMatrix in="SourceAlpha" type="matrix" values="0 0 0 0 0 0 0 0 0 0 0 0 0 0 0 0 0 0 127 0" result="hardAlpha"/>
<feOffset dy="3.86341"/>
<feGaussianBlur stdDeviation="1.9317"/>
<feComposite in2="hardAlpha" operator="out"/>
<feColorMatrix type="matrix" values="0 0 0 0 0 0 0 0 0 0 0 0 0 0 0 0 0 0 0.25 0"/>
<feBlend mode="normal" in2="BackgroundImageFix" result="effect1_dropShadow_182_5097"/>
<feBlend mode="normal" in="SourceGraphic" in2="effect1_dropShadow_182_5097" result="shape"/>
</filter>
<filter id="filter7_d_182_5097" x="371.09" y="61.3801" width="11.1223" height="15.0232" filterUnits="userSpaceOnUse" color-interpolation-filters="sRGB">
<feFlood flood-opacity="0" result="BackgroundImageFix"/>
<feColorMatrix in="SourceAlpha" type="matrix" values="0 0 0 0 0 0 0 0 0 0 0 0 0 0 0 0 0 0 127 0" result="hardAlpha"/>
<feOffset dy="3.86341"/>
<feGaussianBlur stdDeviation="1.9317"/>
<feComposite in2="hardAlpha" operator="out"/>
<feColorMatrix type="matrix" values="0 0 0 0 0 0 0 0 0 0 0 0 0 0 0 0 0 0 0.25 0"/>
<feBlend mode="normal" in2="BackgroundImageFix" result="effect1_dropShadow_182_5097"/>
<feBlend mode="normal" in="SourceGraphic" in2="effect1_dropShadow_182_5097" result="shape"/>
</filter>
<filter id="filter8_d_182_5097" x="300.056" y="57.3191" width="14.1126" height="12.3784" filterUnits="userSpaceOnUse" color-interpolation-filters="sRGB">
<feFlood flood-opacity="0" result="BackgroundImageFix"/>
<feColorMatrix in="SourceAlpha" type="matrix" values="0 0 0 0 0 0 0 0 0 0 0 0 0 0 0 0 0 0 127 0" result="hardAlpha"/>
<feOffset dy="3.86341"/>
<feGaussianBlur stdDeviation="1.9317"/>
<feComposite in2="hardAlpha" operator="out"/>
<feColorMatrix type="matrix" values="0 0 0 0 0 0 0 0 0 0 0 0 0 0 0 0 0 0 0.25 0"/>
<feBlend mode="normal" in2="BackgroundImageFix" result="effect1_dropShadow_182_5097"/>
<feBlend mode="normal" in="SourceGraphic" in2="effect1_dropShadow_182_5097" result="shape"/>
</filter>
<filter id="filter9_d_182_5097" x="306.037" y="68.2576" width="14.6751" height="11.4026" filterUnits="userSpaceOnUse" color-interpolation-filters="sRGB">
<feFlood flood-opacity="0" result="BackgroundImageFix"/>
<feColorMatrix in="SourceAlpha" type="matrix" values="0 0 0 0 0 0 0 0 0 0 0 0 0 0 0 0 0 0 127 0" result="hardAlpha"/>
<feOffset dy="3.86341"/>
<feGaussianBlur stdDeviation="1.9317"/>
<feComposite in2="hardAlpha" operator="out"/>
<feColorMatrix type="matrix" values="0 0 0 0 0 0 0 0 0 0 0 0 0 0 0 0 0 0 0.25 0"/>
<feBlend mode="normal" in2="BackgroundImageFix" result="effect1_dropShadow_182_5097"/>
<feBlend mode="normal" in="SourceGraphic" in2="effect1_dropShadow_182_5097" result="shape"/>
</filter>
<filter id="filter10_d_182_5097" x="301.33" y="128.458" width="70.7639" height="110.975" filterUnits="userSpaceOnUse" color-interpolation-filters="sRGB">
<feFlood flood-opacity="0" result="BackgroundImageFix"/>
<feColorMatrix in="SourceAlpha" type="matrix" values="0 0 0 0 0 0 0 0 0 0 0 0 0 0 0 0 0 0 127 0" result="hardAlpha"/>
<feOffset dy="3.86341"/>
<feGaussianBlur stdDeviation="1.9317"/>
<feComposite in2="hardAlpha" operator="out"/>
<feColorMatrix type="matrix" values="0 0 0 0 0 0 0 0 0 0 0 0 0 0 0 0 0 0 0.25 0"/>
<feBlend mode="normal" in2="BackgroundImageFix" result="effect1_dropShadow_182_5097"/>
<feBlend mode="normal" in="SourceGraphic" in2="effect1_dropShadow_182_5097" result="shape"/>
</filter>
<filter id="filter11_d_182_5097" x="347.915" y="240.606" width="12.9836" height="15.47" filterUnits="userSpaceOnUse" color-interpolation-filters="sRGB">
<feFlood flood-opacity="0" result="BackgroundImageFix"/>
<feColorMatrix in="SourceAlpha" type="matrix" values="0 0 0 0 0 0 0 0 0 0 0 0 0 0 0 0 0 0 127 0" result="hardAlpha"/>
<feOffset dy="3.86341"/>
<feGaussianBlur stdDeviation="1.9317"/>
<feComposite in2="hardAlpha" operator="out"/>
<feColorMatrix type="matrix" values="0 0 0 0 0 0 0 0 0 0 0 0 0 0 0 0 0 0 0.25 0"/>
<feBlend mode="normal" in2="BackgroundImageFix" result="effect1_dropShadow_182_5097"/>
<feBlend mode="normal" in="SourceGraphic" in2="effect1_dropShadow_182_5097" result="shape"/>
</filter>
<filter id="filter12_d_182_5097" x="335.969" y="243.645" width="10.7581" height="14.9663" filterUnits="userSpaceOnUse" color-interpolation-filters="sRGB">
<feFlood flood-opacity="0" result="BackgroundImageFix"/>
<feColorMatrix in="SourceAlpha" type="matrix" values="0 0 0 0 0 0 0 0 0 0 0 0 0 0 0 0 0 0 127 0" result="hardAlpha"/>
<feOffset dy="3.86341"/>
<feGaussianBlur stdDeviation="1.9317"/>
<feComposite in2="hardAlpha" operator="out"/>
<feColorMatrix type="matrix" values="0 0 0 0 0 0 0 0 0 0 0 0 0 0 0 0 0 0 0.25 0"/>
<feBlend mode="normal" in2="BackgroundImageFix" result="effect1_dropShadow_182_5097"/>
<feBlend mode="normal" in="SourceGraphic" in2="effect1_dropShadow_182_5097" result="shape"/>
</filter>
<filter id="filter13_d_182_5097" x="366.965" y="198.997" width="12.1321" height="14.2117" filterUnits="userSpaceOnUse" color-interpolation-filters="sRGB">
<feFlood flood-opacity="0" result="BackgroundImageFix"/>
<feColorMatrix in="SourceAlpha" type="matrix" values="0 0 0 0 0 0 0 0 0 0 0 0 0 0 0 0 0 0 127 0" result="hardAlpha"/>
<feOffset dy="3.86341"/>
<feGaussianBlur stdDeviation="1.9317"/>
<feComposite in2="hardAlpha" operator="out"/>
<feColorMatrix type="matrix" values="0 0 0 0 0 0 0 0 0 0 0 0 0 0 0 0 0 0 0.25 0"/>
<feBlend mode="normal" in2="BackgroundImageFix" result="effect1_dropShadow_182_5097"/>
<feBlend mode="normal" in="SourceGraphic" in2="effect1_dropShadow_182_5097" result="shape"/>
</filter>
<filter id="filter14_d_182_5097" x="367.705" y="215.9" width="14.1555" height="12.1729" filterUnits="userSpaceOnUse" color-interpolation-filters="sRGB">
<feFlood flood-opacity="0" result="BackgroundImageFix"/>
<feColorMatrix in="SourceAlpha" type="matrix" values="0 0 0 0 0 0 0 0 0 0 0 0 0 0 0 0 0 0 127 0" result="hardAlpha"/>
<feOffset dy="3.86341"/>
<feGaussianBlur stdDeviation="1.9317"/>
<feComposite in2="hardAlpha" operator="out"/>
<feColorMatrix type="matrix" values="0 0 0 0 0 0 0 0 0 0 0 0 0 0 0 0 0 0 0.25 0"/>
<feBlend mode="normal" in2="BackgroundImageFix" result="effect1_dropShadow_182_5097"/>
<feBlend mode="normal" in="SourceGraphic" in2="effect1_dropShadow_182_5097" result="shape"/>
</filter>
<filter id="filter15_d_182_5097" x="358.938" y="188.971" width="13.8909" height="12.54" filterUnits="userSpaceOnUse" color-interpolation-filters="sRGB">
<feFlood flood-opacity="0" result="BackgroundImageFix"/>
<feColorMatrix in="SourceAlpha" type="matrix" values="0 0 0 0 0 0 0 0 0 0 0 0 0 0 0 0 0 0 127 0" result="hardAlpha"/>
<feOffset dy="3.86341"/>
<feGaussianBlur stdDeviation="1.9317"/>
<feComposite in2="hardAlpha" operator="out"/>
<feColorMatrix type="matrix" values="0 0 0 0 0 0 0 0 0 0 0 0 0 0 0 0 0 0 0.25 0"/>
<feBlend mode="normal" in2="BackgroundImageFix" result="effect1_dropShadow_182_5097"/>
<feBlend mode="normal" in="SourceGraphic" in2="effect1_dropShadow_182_5097" result="shape"/>
</filter>
<filter id="filter16_d_182_5097" x="372.057" y="184.542" width="11.1223" height="14.8005" filterUnits="userSpaceOnUse" color-interpolation-filters="sRGB">
<feFlood flood-opacity="0" result="BackgroundImageFix"/>
<feColorMatrix in="SourceAlpha" type="matrix" values="0 0 0 0 0 0 0 0 0 0 0 0 0 0 0 0 0 0 127 0" result="hardAlpha"/>
<feOffset dy="3.86341"/>
<feGaussianBlur stdDeviation="1.9317"/>
<feComposite in2="hardAlpha" operator="out"/>
<feColorMatrix type="matrix" values="0 0 0 0 0 0 0 0 0 0 0 0 0 0 0 0 0 0 0.25 0"/>
<feBlend mode="normal" in2="BackgroundImageFix" result="effect1_dropShadow_182_5097"/>
<feBlend mode="normal" in="SourceGraphic" in2="effect1_dropShadow_182_5097" result="shape"/>
</filter>
<filter id="filter17_d_182_5097" x="301.022" y="191.043" width="14.1126" height="12.2363" filterUnits="userSpaceOnUse" color-interpolation-filters="sRGB">
<feFlood flood-opacity="0" result="BackgroundImageFix"/>
<feColorMatrix in="SourceAlpha" type="matrix" values="0 0 0 0 0 0 0 0 0 0 0 0 0 0 0 0 0 0 127 0" result="hardAlpha"/>
<feOffset dy="3.86341"/>
<feGaussianBlur stdDeviation="1.9317"/>
<feComposite in2="hardAlpha" operator="out"/>
<feColorMatrix type="matrix" values="0 0 0 0 0 0 0 0 0 0 0 0 0 0 0 0 0 0 0.25 0"/>
<feBlend mode="normal" in2="BackgroundImageFix" result="effect1_dropShadow_182_5097"/>
<feBlend mode="normal" in="SourceGraphic" in2="effect1_dropShadow_182_5097" result="shape"/>
</filter>
<filter id="filter18_d_182_5097" x="307.004" y="181.385" width="14.6751" height="11.2905" filterUnits="userSpaceOnUse" color-interpolation-filters="sRGB">
<feFlood flood-opacity="0" result="BackgroundImageFix"/>
<feColorMatrix in="SourceAlpha" type="matrix" values="0 0 0 0 0 0 0 0 0 0 0 0 0 0 0 0 0 0 127 0" result="hardAlpha"/>
<feOffset dy="3.86341"/>
<feGaussianBlur stdDeviation="1.9317"/>
<feComposite in2="hardAlpha" operator="out"/>
<feColorMatrix type="matrix" values="0 0 0 0 0 0 0 0 0 0 0 0 0 0 0 0 0 0 0.25 0"/>
<feBlend mode="normal" in2="BackgroundImageFix" result="effect1_dropShadow_182_5097"/>
<feBlend mode="normal" in="SourceGraphic" in2="effect1_dropShadow_182_5097" result="shape"/>
</filter>
<linearGradient id="paint0_linear_182_5097" x1="152.222" y1="264.743" x2="156.442" y2="13.1717" gradientUnits="userSpaceOnUse">
<stop offset="0.265" stop-color="white" stop-opacity="0"/>
<stop offset="1" stop-color="#525252"/>
</linearGradient>
<linearGradient id="paint1_linear_182_5097" x1="337.867" y1="231.707" x2="335.503" y2="128.459" gradientUnits="userSpaceOnUse">
<stop offset="0.115" stop-color="white" stop-opacity="0"/>
<stop offset="1" stop-color="#999999" stop-opacity="0.44"/>
</linearGradient>
<linearGradient id="paint2_linear_182_5097" x1="1.73525" y1="-1.50479e-09" x2="1.41671" y2="8.73076" gradientUnits="userSpaceOnUse">
<stop offset="0.115" stop-color="white" stop-opacity="0"/>
<stop offset="1" stop-color="#999999" stop-opacity="0.44"/>
</linearGradient>
<linearGradient id="paint3_linear_182_5097" x1="1.45086" y1="-1.26267e-09" x2="1.18262" y2="7.32592" gradientUnits="userSpaceOnUse">
<stop offset="0.115" stop-color="white" stop-opacity="0"/>
<stop offset="1" stop-color="#999999" stop-opacity="0.44"/>
</linearGradient>
<linearGradient id="paint4_linear_182_5097" x1="1.45347" y1="-1.26043e-09" x2="1.18666" y2="7.31298" gradientUnits="userSpaceOnUse">
<stop offset="0.115" stop-color="white" stop-opacity="0"/>
<stop offset="1" stop-color="#999999" stop-opacity="0.44"/>
</linearGradient>
<linearGradient id="paint5_linear_182_5097" x1="1.45906" y1="-1.2556e-09" x2="1.1953" y2="7.2851" gradientUnits="userSpaceOnUse">
<stop offset="0.115" stop-color="white" stop-opacity="0"/>
<stop offset="1" stop-color="#999999" stop-opacity="0.44"/>
</linearGradient>
<linearGradient id="paint6_linear_182_5097" x1="1.45821" y1="-1.25634e-09" x2="1.19399" y2="7.28936" gradientUnits="userSpaceOnUse">
<stop offset="0.115" stop-color="white" stop-opacity="0"/>
<stop offset="1" stop-color="#999999" stop-opacity="0.44"/>
</linearGradient>
<linearGradient id="paint7_linear_182_5097" x1="1.45146" y1="-1.26216e-09" x2="1.18354" y2="7.32295" gradientUnits="userSpaceOnUse">
<stop offset="0.115" stop-color="white" stop-opacity="0"/>
<stop offset="1" stop-color="#999999" stop-opacity="0.44"/>
</linearGradient>
<linearGradient id="paint8_linear_182_5097" x1="1.45892" y1="-1.25572e-09" x2="1.19508" y2="7.28581" gradientUnits="userSpaceOnUse">
<stop offset="0.115" stop-color="white" stop-opacity="0"/>
<stop offset="1" stop-color="#999999" stop-opacity="0.44"/>
</linearGradient>
<linearGradient id="paint9_linear_182_5097" x1="1.46083" y1="-1.25406e-09" x2="1.19803" y2="7.27623" gradientUnits="userSpaceOnUse">
<stop offset="0.115" stop-color="white" stop-opacity="0"/>
<stop offset="1" stop-color="#999999" stop-opacity="0.44"/>
</linearGradient>
</defs>
</svg>
